<?xml version="1.0" standalone="no"?>
<!DOCTYPE svg PUBLIC "-//W3C//DTD SVG 1.1//EN" "http://www.w3.org/Graphics/SVG/1.1/DTD/svg11.dtd" >
<svg xmlns="http://www.w3.org/2000/svg">
<metadata>Generated by IcoMoon</metadata>
<defs>
<font id="samsonite" horiz-adv-x="1024">
<font-face units-per-em="1024" ascent="960" descent="-64" />
<missing-glyph horiz-adv-x="1024" />
<glyph unicode="&#x20;" horiz-adv-x="512" d="" />
<glyph unicode="&#xe900;" glyph-name="language" d="M512 960c-282.767 0-512-229.233-512-512s229.233-512 512-512 512 229.233 512 512c-0.317 282.633-229.367 511.683-512 512zM954.808 268.633l-145.608-25.125c16.667 61.125 25.667 124.083 26.792 187.425h153.45c-1.925-55.717-13.65-110.658-34.633-162.3zM34.558 430.933h153.45c1.125-63.342 10.125-126.3 26.792-187.425l-145.608 25.125c-20.983 51.642-32.708 106.583-34.633 162.3zM69.192 627.367l145.608 25.125c-16.667-61.125-25.667-124.083-26.792-187.425h-153.45c1.925 55.717 13.65 110.658 34.633 162.3zM529.067 685.975c61.325-0.783 122.5-6.367 182.958-16.708l60.242-10.392c18.508-62.983 28.467-128.167 29.608-193.808h-272.808zM717.842 702.908c-62.375 10.658-125.5 16.417-188.775 17.2v204.8c97.842-9.4 182.833-98.983 231-229.358zM494.933 720.108c-63.275-0.783-126.383-6.542-188.758-17.2l-42.242-7.308c48.167 130.408 133.158 220.025 231 229.383zM311.992 669.267c60.45 10.342 121.617 15.925 182.942 16.708v-220.908h-272.808c1.142 65.642 11.1 130.825 29.608 193.808zM222.125 430.933h272.808v-220.908c-61.325 0.783-122.5 6.367-182.958 16.708l-60.242 10.392c-18.508 62.983-28.467 128.167-29.608 193.808zM306.158 193.092c62.375-10.675 125.492-16.458 188.775-17.292v-204.8c-97.842 9.408-182.833 98.992-231 229.367zM529.067 175.8c63.275 0.833 126.383 6.617 188.758 17.292l42.242 7.308c-48.167-130.408-133.158-220.025-231-229.383zM712.008 226.733c-60.45-10.342-121.617-15.925-182.942-16.708v220.908h272.808c-1.142-65.642-11.1-130.825-29.608-193.808zM835.992 465.067c-1.125 63.342-10.125 126.3-26.792 187.425l145.608-25.125c20.983-51.642 32.708-106.583 34.633-162.3zM937.542 664.983l-139.575 24.083c-25.092 81.858-72.033 155.325-135.783 212.483 119.208-39.783 218.067-124.708 275.358-236.567zM361.817 901.55c-63.75-57.158-110.692-130.625-135.783-212.483l-139.575-24.083c57.292 111.858 156.15 196.783 275.358 236.567zM86.458 231.017l139.575-24.083c25.092-81.858 72.033-155.325 135.783-212.483-119.208 39.783-218.067 124.708-275.358 236.567zM662.183-5.55c63.75 57.158 110.692 130.625 135.783 212.483l139.575 24.083c-57.292-111.858-156.15-196.783-275.358-236.567z" />
<glyph unicode="&#xe901;" glyph-name="padlock" d="M429.056 141.038l0.018-0.018c9.352-10.922 22.886-17.238 37.154-17.288h0.188c14.166 0 27.666 6.196 37.138 17.084l229.53 267.828c18.534 21.35 16.64 54.152-4.232 73.148-10.222 9.318-23.416 13.978-37.12 13.192-13.756-0.802-26.334-7.032-35.516-17.612l-189.748-221.918-58.386 68.864c-9.028 10.564-21.572 16.88-35.31 17.8-13.858 0.904-26.914-3.652-37.206-12.886-21.010-18.824-23.176-51.626-4.812-73.13l98.302-115.064zM358.332 303.804c3.38 3.054 7.662 4.608 12.168 4.25 4.506-0.29 8.636-2.39 11.606-5.854l71.288-84.104c3.242-3.822 7.988-6.024 12.988-6.042h0.034c4.984 0 9.728 2.184 12.97 5.974l202.684 237.072c3.020 3.482 7.186 5.546 11.656 5.802 4.42 0.188 8.772-1.262 12.152-4.352 7.27-6.604 7.902-18.074 1.348-25.6l-229.53-267.844c-2.936-3.38-6.946-5.24-11.282-5.24h-0.068c-4.37 0.018-8.396 1.912-11.332 5.342l-98.304 115.064c-6.434 7.526-5.7 18.978 1.622 25.532zM837.138 567.466h-103.274v170.666c0.002 122.336-99.532 221.868-221.866 221.868s-221.866-99.532-221.866-221.866v-170.666h-103.268c-27.75 0-50.33-22.58-50.33-50.33v-461.602c0-0.022-0.004-0.044-0.004-0.068s0.004-0.044 0.004-0.068v-69.070c0-27.75 22.58-50.33 50.33-50.33h650.274c27.75 0 50.33 22.58 50.33 50.33v530.808c0 27.75-22.578 50.328-50.33 50.328zM324.266 738.134c0 103.51 84.224 187.734 187.734 187.734s187.734-84.224 187.734-187.734v-170.666h-34.134v170.666c0 84.684-68.898 153.6-153.6 153.6s-153.6-68.916-153.6-153.6v-170.666h-34.134v170.666zM392.532 567.466v170.666c0 65.878 53.606 119.466 119.466 119.466s119.466-53.59 119.466-119.466v-170.666h-238.932zM186.864 533.334h650.272c8.926 0 16.196-7.27 16.196-16.196v-444.604h-682.664v444.604c0 8.924 7.27 16.196 16.196 16.196zM837.138-29.866h-650.274c-8.926 0-16.196 7.27-16.196 16.196v52.070h682.666v-52.070c0.002-8.926-7.27-16.196-16.196-16.196z" />
<glyph unicode="&#xe902;" glyph-name="return" d="M885.099 913.771c-23.552 0-42.667-19.115-42.667-42.667v-35.563c-91.648 79.915-208.533 124.459-333.099 124.459-280.853 0-509.333-229.312-509.333-511.147 0-23.552 19.115-42.667 42.667-42.667s42.667 19.115 42.667 42.667c0 234.795 190.208 425.813 424 425.813 102.549 0 198.891-36.309 274.837-101.525h-39.104c-23.552 0-42.667-19.115-42.667-42.667s19.115-42.667 42.667-42.667h140.032c23.552 0 42.667 19.115 42.667 42.667v140.629c0 23.552-19.115 42.667-42.667 42.667zM981.333 489.813c-23.552 0-42.667-19.115-42.667-42.667 0-234.795-190.208-425.813-424-425.813-101.355 0-196.672 35.413-272.192 99.2h40.981c23.552 0 42.667 19.115 42.667 42.667s-19.115 42.667-42.667 42.667h-140.053c-0.384 0-0.725-0.107-1.088-0.107-1.621-0.043-3.221-0.256-4.843-0.491-1.195-0.171-2.389-0.277-3.563-0.555-1.408-0.32-2.795-0.832-4.181-1.301-1.28-0.448-2.581-0.832-3.819-1.387-1.173-0.533-2.283-1.216-3.413-1.856-1.344-0.768-2.667-1.515-3.925-2.411-0.32-0.235-0.683-0.363-1.003-0.619-0.725-0.555-1.28-1.237-1.963-1.835-1.131-0.981-2.261-1.963-3.285-3.072-0.96-1.024-1.792-2.091-2.624-3.179s-1.643-2.176-2.389-3.328c-0.747-1.195-1.387-2.432-2.005-3.669-0.619-1.216-1.195-2.453-1.685-3.733-0.491-1.323-0.875-2.645-1.237-4.011-0.341-1.301-0.704-2.603-0.917-3.947-0.256-1.515-0.363-3.029-0.469-4.565-0.064-0.875-0.256-1.728-0.256-2.624v-140.629c0-23.552 19.115-42.667 42.667-42.667s42.667 19.115 42.667 42.667v33.92c90.944-77.419 206.080-120.469 328.597-120.469 280.853 0 509.333 229.312 509.333 511.147 0 23.552-19.115 42.667-42.667 42.667z" />
<glyph unicode="&#xe903;" horiz-adv-x="2731" d="M272.725 681.529h92.558l-46.251 117.817-46.308-117.817z" />
<glyph unicode="&#xe904;" horiz-adv-x="2731" d="M2322.148 908.8v-50.517l-25.259 50.517h-197.803v-50.517l-25.202 50.517h-269.369c-46.251 0-84.196-8.42-117.76-25.259v25.259h-189.44v-25.259c-21.049 16.839-46.251 25.259-79.929 25.259h-677.547l-46.251-105.244-46.308 105.244h-214.642v-50.517l-25.259 50.517h-180.907l-84.252-197.803-96.711-218.852h214.585l25.259 67.356h58.937l25.259-67.356h244.053v50.517l21.049-50.517h122.027l21.049 50.517v-50.517h584.932v109.454h8.42c8.42 0 8.42 0 8.42-12.629v-92.615h302.99v25.259c25.259-12.629 63.147-25.259 113.607-25.259h126.293l25.202 67.356h58.937l25.259-67.356h244.053v63.147l37.888-63.147h197.803v412.444h-189.383zM899.755 555.292h-71.452v231.424l-101.035-231.424h-63.147l-100.978 231.424v-231.424h-143.132l-29.412 63.147h-143.132l-25.202-67.356h-80.043l126.293 298.78h105.244l117.76-281.941v281.941h113.664l92.615-201.956 84.139 201.956h117.817v-294.571zM1185.906 786.716h-164.124v-54.67h159.915v-58.937h-159.858v-58.88h164.068v-63.147h-235.634v298.78h235.634v-63.147zM1501.525 664.69c8.42-16.839 12.629-29.468 12.629-54.67v-58.937h-71.452v37.888c0 16.839 0 42.098-12.629 58.88-12.629 12.629-25.259 12.629-50.517 12.629h-75.719v-109.397h-71.623v298.78h159.915c37.888 0 63.147 0 84.196-12.629s33.621-33.678 33.621-67.3c0-46.308-29.412-71.566-50.46-79.986 21.049-4.21 33.621-16.839 42.098-25.259zM1627.819 555.292h-71.566v298.78h71.566v-298.78zM2456.804 555.292h-100.978l-134.656 223.004v-223.004h-143.076l-25.259 63.147h-147.342l-25.202-67.356h-79.986c-33.621 0-75.719 8.42-100.978 33.678s-37.888 58.88-37.888 113.607c0 42.098 8.42 84.196 37.888 117.817 21.049 25.259 58.937 33.678 105.244 33.678h67.3v-63.147h-67.356c-25.202 0-37.831-4.21-54.67-16.782-12.629-12.629-21.049-37.888-21.049-67.356 0-33.678 4.21-54.727 21.049-71.566 12.629-12.629 29.468-16.782 50.46-16.782h29.468l96.825 231.424h105.188l117.817-281.941v281.941h105.244l122.027-206.222v206.222h71.509v-290.361h8.42z" />
<glyph unicode="&#xe905;" horiz-adv-x="2731" d="M1930.809 681.529h96.711l-46.251 117.817-50.517-117.817zM1215.374 75.548v239.844l-109.454-117.703 109.454-122.084zM765.156 285.98v-54.727h155.648v-58.937h-155.648v-63.147h172.544l79.986 88.405-75.776 88.405h-176.754zM1375.289 285.98h-88.462v-75.776h92.558c25.259 0 42.098 12.629 42.098 37.888-4.21 25.259-21.049 37.888-46.251 37.888z" />
<glyph unicode="&#xe906;" horiz-adv-x="2731" d="M2675.655 214.414v189.383h-176.811c-37.831 0-67.3-8.42-88.348-25.259v25.259h-193.536c-29.468 0-67.356-8.42-84.196-25.259v25.259h-340.878v-25.259c-25.202 21.049-71.509 25.259-92.558 25.259h-227.214v-25.259c-21.049 21.049-71.566 25.259-96.825 25.259h-252.473l-58.937-63.147-54.67 63.147h-378.766v-412.444h370.347l58.88 63.147 54.727-63.147h227.214v96.825h29.468c29.468 0 67.356 0 96.825 12.629v-113.607h189.326v109.397h8.42c12.629 0 12.629 0 12.629-12.629v-96.768h572.302c37.888 0 75.776 8.42 96.825 25.202v-25.202h180.907c37.888 0 75.776 4.21 101.035 21.049 42.098 25.202 67.356 71.509 67.356 126.236 0 29.412-8.42 58.88-21.049 79.929zM1371.022 147.115h-84.196v-101.035h-134.599l-84.196 96.825-88.348-96.825h-277.675v298.78h281.941l84.196-96.768 88.348 96.768h223.004c54.727 0 117.817-16.839 117.817-96.768-4.21-84.196-63.147-100.978-126.236-100.978zM1791.829 163.897c8.42-12.572 12.629-29.412 12.629-54.67v-58.937h-71.509v37.888c0 16.839 0 46.308-12.629 58.937-8.42 12.572-25.259 12.572-50.517 12.572h-75.719v-109.397h-71.566v298.78h159.915c33.678 0 63.147 0 84.196-12.629s37.831-33.621 37.831-67.3c0-46.308-29.412-71.566-50.46-79.986 21.049-8.42 33.678-16.839 37.831-25.259zM2082.19 285.98h-164.068v-54.727h159.858v-58.937h-159.858v-58.88h164.068v-63.147h-235.577v298.78h235.691v-63.147zM2258.944 50.29h-134.656v63.147h134.656c12.629 0 21.049 0 29.468 8.42 5.082 5.541 8.251 12.909 8.419 21.015l0.001 0.034c-0.169 8.139-3.337 15.508-8.441 21.073l0.021-0.024c-4.21 4.153-12.629 8.363-25.259 8.363-67.3 4.21-147.285 0-147.285 92.615 0 42.098 25.259 88.348 101.035 88.348h138.809v-71.509h-130.389c-12.629 0-21.049 0-29.468-4.21s-8.42-12.629-8.42-21.049c0-12.629 8.42-16.839 16.839-21.049s16.839-4.21 25.259-4.21h37.831c37.888 0 63.147-8.42 79.986-25.259 12.629-12.629 21.049-33.678 21.049-63.147 0-63.090-37.888-92.558-109.454-92.558zM2620.871 79.758c-16.839-16.839-46.308-29.468-88.348-29.468h-134.656v63.147h134.656c12.572 0 21.049 0 29.412 8.42 5.082 5.541 8.251 12.909 8.419 21.015l0.001 0.034c-0.169 8.139-3.337 15.508-8.441 21.073l0.021-0.024c-4.21 4.153-12.572 8.363-25.202 8.363-67.356 4.21-147.342 0-147.342 92.615 0 42.098 25.259 88.348 101.035 88.348h138.866v-71.509h-126.293c-12.572 0-21.049 0-29.412-4.21-8.42-4.21-8.42-12.629-8.42-21.049 0-12.629 4.21-16.839 16.839-21.049 8.42-4.21 16.839-4.21 25.259-4.21h37.888c37.831 0 63.147-8.42 79.929-25.259 4.21 0 4.21-4.21 4.21-4.21 12.629-16.839 16.839-37.888 16.839-58.88 0-25.259-8.42-46.308-25.259-63.147z" />
<glyph unicode="&#xe907;" horiz-adv-x="2731" d="M1215.374 75.548v239.844l-109.454-117.703 109.454-122.084z" />
<glyph unicode="&#xe908;" horiz-adv-x="2731" d="M2313.671 508.985l8.476-12.629h4.21l-12.629 12.629z" />
<glyph unicode="&#xe909;" horiz-adv-x="2731" d="M1681.92 285.98h-88.348v-75.776h92.558c25.259 0 42.098 12.629 42.098 37.888-4.21 25.259-21.049 37.888-46.308 37.888zM1392.071 794.112h-88.348v-75.776h92.558c25.259 0 42.098 12.629 42.098 37.888-4.21 25.259-21.049 37.888-46.308 37.888z" />
<glyph unicode="&#xe90a;" glyph-name="bag" d="M848.384 25.728c-4.678-4.894-11.258-7.937-18.548-7.937-0.064 0-0.128 0-0.192 0.001h-639.99c-0.060 0-0.13-0.001-0.2-0.001-7.285 0-13.859 3.043-18.521 7.927l-0.009 0.010c-4.894 4.678-7.937 11.258-7.937 18.548 0 0.064 0 0.128 0.001 0.192v-0.010 640c0 0.060-0.001 0.13-0.001 0.2 0 7.285 3.043 13.859 7.927 18.521l0.010 0.009c4.678 4.894 11.258 7.937 18.548 7.937 0.064 0 0.128 0 0.192-0.001h159.99c0 43.861 15.701 81.536 47.104 112.896 31.36 31.36 69.035 47.104 112.896 47.104s81.536-15.701 112.896-47.104c31.36-31.403 47.104-69.035 47.104-112.896h160c0.060 0 0.13 0.001 0.2 0.001 7.285 0 13.859-3.043 18.521-7.927l0.009-0.010c4.894-4.678 7.937-11.258 7.937-18.548 0-0.064 0-0.128-0.001-0.192v0.010-640c0-0.038 0-0.083 0-0.128 0-7.307-3.041-13.905-7.928-18.594l-0.009-0.008zM802.944 657.792h-133.333v-106.667c0.001-0.070 0.001-0.153 0.001-0.237 0-7.274-3.044-13.836-7.927-18.484l-0.011-0.010c-5.291-5.291-11.563-7.936-18.731-7.936s-13.44 2.645-18.731 7.936c-4.894 4.671-7.937 11.245-7.937 18.53 0 0.070 0 0.141 0.001 0.211v-0.011 106.667h-213.333v-106.667c0.001-0.070 0.001-0.153 0.001-0.237 0-7.274-3.044-13.836-7.927-18.484l-0.011-0.010c-5.291-5.291-11.563-7.936-18.731-7.936s-13.44 2.645-18.731 7.936c-4.894 4.671-7.937 11.245-7.937 18.53 0 0.070 0 0.141 0.001 0.211v-0.011 106.667h-133.333v-586.667h586.667v586.667zM434.219 786.56c-19.305-18.709-31.287-44.876-31.287-73.843 0-0.56 0.004-1.119 0.013-1.676l-0.001 0.084h213.333c0 29.44-10.411 54.571-31.232 75.435s-45.952 31.232-75.435 31.232-54.571-10.411-75.392-31.232z" />
<glyph unicode="&#xe90b;" glyph-name="timer" d="M845.734 645.242l40.148 40.148c15.602 15.602 15.602 40.898 0 56.492-15.602 15.602-40.891 15.602-56.492 0l-40.148-40.148c-67.359 56.125-149.211 90.031-236.523 97.969v80.398h38.617c22.063 0 39.945 17.891 39.945 39.953s-17.883 39.945-39.945 39.945h-157.133c-22.063 0-39.945-17.883-39.945-39.945s17.883-39.953 39.945-39.953h38.617v-80.398c-218.563-19.875-392.82-203.484-392.82-430.93 0-239.188 193.555-432.773 432.773-432.773 239.18 0 432.766 193.555 432.766 432.773 0 102.172-35.188 198.93-99.805 276.469zM512.766 15.898c-194.57 0-352.875 158.297-352.875 352.875 0 194.57 158.305 352.867 352.875 352.867 194.578 0 352.875-158.297 352.875-352.867 0-194.578-158.297-352.875-352.875-352.875zM697.898 553.898c15.602-15.602 15.602-40.898 0-56.492l-156.883-156.883c-15.602-15.602-40.898-15.602-56.492 0-15.602 15.602-15.602 40.898 0 56.492l156.875 156.883c15.602 15.602 40.898 15.602 56.5 0z" />
<glyph unicode="&#xe90c;" glyph-name="user" d="M512 960c-148.878 0-270-121.122-270-270s121.122-270 270-270 270 121.122 270 270-121.122 270-270 270zM512 480c-115.794 0-210 94.206-210 210s94.206 210 210 210c115.794 0 210-94.206 210-210s-94.206-210-210-210zM595.666 358h-167.334c-138.404 0-274.994-63.902-366.332-200.916v-221.084h900v221.084c-91.206 136.816-227.758 200.916-366.334 200.916zM902.002-4h-780.002v142.726c70.062 99.908 183.904 159.274 306.334 159.274h167.334c122.43 0 236.27-59.366 306.334-159.274v-142.726z" />
<glyph unicode="&#xe90d;" glyph-name="pin" d="M512 960c-208.583 0-378.27-169.688-378.27-378.27 0-68.667 30.796-142.519 32.086-145.634 9.946-23.609 29.572-60.278 43.724-81.773l259.36-392.978c10.614-16.11 26.323-25.344 43.101-25.344s32.487 9.234 43.101 25.322l259.382 393.001c14.174 21.495 33.777 58.165 43.724 81.773 1.291 3.093 32.064 76.945 32.064 145.634 0 208.583-169.688 378.27-378.27 378.27zM817.175 453.363c-8.878-21.161-27.146-55.272-39.852-74.542l-259.382-393.001c-5.118-7.766-6.742-7.766-11.86 0l-259.382 393.001c-12.705 19.27-30.974 53.403-39.852 74.564-0.378 0.912-28.615 68.89-28.615 128.345 0 184.040 149.728 333.768 333.768 333.768s333.768-149.728 333.768-333.768c0-59.544-28.304-127.7-28.593-128.367zM512 781.968c-110.433 0-200.261-89.85-200.261-200.261s89.828-200.261 200.261-200.261c110.433 0 200.261 89.85 200.261 200.261s-89.828 200.261-200.261 200.261zM512 425.949c-85.867 0-155.758 69.869-155.758 155.758s69.891 155.758 155.758 155.758 155.758-69.869 155.758-155.758-69.891-155.758-155.758-155.758z" />
<glyph unicode="&#xe90e;" glyph-name="switch" d="M160 544h626.752l-57.376-57.376c-12.496-12.496-12.496-32.752 0-45.248 6.256-6.256 14.432-9.376 22.624-9.376s16.368 3.12 22.624 9.376l112 112c12.496 12.496 12.496 32.752 0 45.248l-112 112c-12.496 12.496-32.752 12.496-45.248 0s-12.496-32.752 0-45.248l57.376-57.376h-626.752c-17.664 0-32-14.336-32-32s14.336-32 32-32zM864 352h-626.752l57.376 57.376c12.496 12.496 12.496 32.752 0 45.248-12.48 12.496-32.768 12.496-45.248 0l-112-112c-12.496-12.496-12.496-32.752 0-45.248l112-112c6.24-6.256 14.432-9.376 22.624-9.376s16.384 3.12 22.624 9.376c12.496 12.496 12.496 32.752 0 45.248l-57.376 57.376h626.752c17.664 0 32 14.336 32 32s-14.336 32-32 32z" />
<glyph unicode="&#xe90f;" glyph-name="pencil" d="M511.986 960c-282.757 0-511.983-229.243-511.983-511.99s229.226-512.010 511.983-512.010 512.010 229.25 512.010 512.010-229.253 511.99-512.010 511.99zM755.377 591.548l-48.63-48.63-98.99 98.983-37.553-37.553 98.99-98.99-242.797-242.777-98.983 98.973-37.553-37.553 98.983-98.983-24.194-24.194-0.461 0.461c-2.683-4.417-7.045-7.639-12.227-8.789l-92.307-20.582c-1.382-0.311-2.789-0.461-4.178-0.461-5.038 0-9.933 1.983-13.561 5.622-4.656 4.639-6.595 11.339-5.161 17.76l20.572 92.279c1.161 5.178 4.39 9.551 8.8 12.227l-0.468 0.468 390.724 390.741c5.728 5.717 15.032 5.717 20.76-0.017l78.24-78.223c5.728-5.728 5.728-15.032-0.007-20.76z" />
<glyph unicode="&#xe910;" glyph-name="delete" d="M874.039 810.039c-96.703 96.703-225.281 149.961-362.039 149.961s-265.336-53.258-362.039-149.961c-96.703-96.703-149.961-225.281-149.961-362.039 0-136.766 53.258-265.336 149.961-362.039s225.281-149.961 362.039-149.961 265.336 53.258 362.039 149.961c96.703 96.703 149.961 225.273 149.961 362.039 0 136.758-53.258 265.336-149.961 362.039zM733.453 297.266c19.523-19.531 19.523-51.188 0-70.711-9.766-9.766-22.563-14.648-35.359-14.648s-25.594 4.883-35.359 14.648l-150.734 150.734-150.734-150.742c-9.766-9.758-22.563-14.641-35.359-14.641s-25.594 4.883-35.359 14.641c-19.523 19.531-19.523 51.188 0 70.711l150.742 150.742-150.742 150.734c-19.523 19.531-19.523 51.188 0 70.711 19.531 19.531 51.188 19.531 70.711 0l150.742-150.734 150.734 150.734c19.531 19.523 51.188 19.531 70.711 0 19.531-19.523 19.531-51.18 0-70.711l-150.734-150.734z" />
<glyph unicode="&#xe911;" glyph-name="plus" d="M512 960c-282.328 0-512-229.672-512-512s229.672-512 512-512 512 229.672 512 512-229.672 512-512 512zM736 405.336h-181.336v-181.336c0-23.555-19.109-42.664-42.664-42.664s-42.664 19.109-42.664 42.664v181.336h-181.336c-23.555 0-42.664 19.109-42.664 42.664s19.109 42.664 42.664 42.664h181.336v181.336c0 23.555 19.109 42.664 42.664 42.664s42.664-19.109 42.664-42.664v-181.336h181.336c23.555 0 42.664-19.109 42.664-42.664s-19.109-42.664-42.664-42.664z" />
<glyph unicode="&#xe912;" glyph-name="like" d="M752 900c-55.566 0-106.51-17.608-151.414-52.336-43.050-33.294-71.712-75.7-88.586-106.536-16.874 30.838-45.536 73.242-88.586 106.536-44.904 34.728-95.848 52.336-151.414 52.336-155.064 0-272-126.834-272-295.028 0-181.708 145.886-306.030 366.738-494.236 37.504-31.962 80.014-68.19 124.198-106.828 5.824-5.1 13.304-7.908 21.064-7.908s15.24 2.808 21.064 7.906c44.188 38.644 86.696 74.87 124.222 106.85 220.828 188.186 366.714 312.508 366.714 494.216 0 168.194-116.936 295.028-272 295.028z" />
<glyph unicode="&#xe914;" glyph-name="facebook" horiz-adv-x="528" d="M153.4-64v458h-153.4v182h153.4v143.4c0 155.8 95.2 240.6 234.2 240.6 66.6 0 123.8-5 140.4-7.2v-162.8h-96.4c-75.6 0-90.2-36-90.2-88.6v-125.4h170.6l-23.4-182h-147.2v-458z" />
<glyph unicode="&#xe916;" glyph-name="insta" horiz-adv-x="896" d="M448.2 678c-127.2 0-229.8-102.6-229.8-229.8s102.6-229.8 229.8-229.8 229.8 102.6 229.8 229.8-102.6 229.8-229.8 229.8zM448.2 298.8c-82.2 0-149.4 67-149.4 149.4s67 149.4 149.4 149.4 149.4-67 149.4-149.4-67.2-149.4-149.4-149.4zM741 687.4c0-29.8-24-53.6-53.6-53.6-29.8 0-53.6 24-53.6 53.6s24 53.6 53.6 53.6 53.6-24 53.6-53.6zM893.2 633c-3.4 71.8-19.8 135.4-72.4 187.8-52.4 52.4-116 68.8-187.8 72.4-74 4.2-295.8 4.2-369.8 0-71.6-3.4-135.2-19.8-187.8-72.2s-68.8-116-72.4-187.8c-4.2-74-4.2-295.8 0-369.8 3.4-71.8 19.8-135.4 72.4-187.8s116-68.8 187.8-72.4c74-4.2 295.8-4.2 369.8 0 71.8 3.4 135.4 19.8 187.8 72.4 52.4 52.4 68.8 116 72.4 187.8 4.2 74 4.2 295.6 0 369.6zM797.6 184c-15.6-39.2-45.8-69.4-85.2-85.2-59-23.4-199-18-264.2-18s-205.4-5.2-264.2 18c-39.2 15.6-69.4 45.8-85.2 85.2-23.4 59-18 199-18 264.2s-5.2 205.4 18 264.2c15.6 39.2 45.8 69.4 85.2 85.2 59 23.4 199 18 264.2 18s205.4 5.2 264.2-18c39.2-15.6 69.4-45.8 85.2-85.2 23.4-59 18-199 18-264.2s5.4-205.4-18-264.2z" />
<glyph unicode="&#xe918;" glyph-name="mail" d="M941.739 754.901c0.555-1.109 0.853-2.091 0.853-2.901v-2.901c0.555-1.109 0.853-1.963 0.853-2.517v-586.667c0-7.253-2.645-13.483-7.936-18.731-4.678-4.894-11.258-7.937-18.548-7.937-0.064 0-0.128 0-0.192 0.001h-800.033c-0.070-0.001-0.153-0.001-0.237-0.001-7.274 0-13.836 3.044-18.484 7.927l-0.010 0.011c-4.894 4.658-7.937 11.22-7.937 18.494 0 0.083 0 0.166 0.001 0.249v-0.013 586.667c0 0.555 0.256 1.365 0.853 2.517v2.901c0 0.811 0.256 1.792 0.853 2.901 0.551 0.574 0.976 1.275 1.227 2.053l0.011 0.038c0.377 1.13 0.796 2.088 1.287 3.002l-0.050-0.101c0.443 0.721 0.746 1.575 0.851 2.489l0.003 0.028c0.555 0 0.939 0.128 1.237 0.427 0.267 0.3 0.43 0.697 0.43 1.132 0 0.037-0.001 0.073-0.003 0.11v-0.005l1.621 1.664c0.717 0.669 1.548 1.228 2.46 1.641l0.057 0.023 1.664 1.664c0.555 0.555 1.365 0.853 2.517 0.853 0.574 0.551 1.275 0.976 2.053 1.227l0.038 0.011c0.615 0.223 1.327 0.376 2.067 0.425l0.024 0.001c1.109 0.555 2.091 0.853 2.901 0.853s1.792 0.256 2.901 0.853h803.328c1.109-0.597 2.091-0.853 2.901-0.853s1.792-0.299 2.901-0.853c0.555 0 1.237-0.171 2.091-0.427 0.853-0.299 1.536-0.725 2.091-1.237 1.109 0 1.92-0.299 2.517-0.853l1.664-1.664c0.959-0.48 1.786-1.034 2.533-1.678l-0.016 0.014 1.664-1.664c0-0.597 0.128-0.981 0.427-1.237 0.256-0.299 0.683-0.427 1.237-0.427 0-0.597 0.256-1.408 0.853-2.517 0.556-1.133 1.109-2.083 1.721-2.991l-0.057 0.089c0.431-0.584 0.721-1.297 0.809-2.071l0.002-0.020zM890.069 186.581v507.52l-357.504-262.485c-2.144-1.602-4.641-2.884-7.337-3.709l-0.172-0.045c-2.449-0.772-5.264-1.217-8.184-1.217-5.969 0-11.504 1.86-16.057 5.033l0.092-0.061-357.504 262.485v-507.52h746.667zM198.4 719.915l318.336-233.344 318.336 233.344h-636.672z" />
<glyph unicode="&#xe919;" horiz-adv-x="1764" d="M1047.040 445.269c0-0.186 0-0.406 0-0.626 0-280.947-227.753-508.7-508.7-508.7-0.22 0-0.441 0-0.661 0h0.035c-280.348 0.057-509.269 228.921-509.269 509.326 0 280.348 226.19 509.269 506.596 509.269 285.81 0 512-228.921 512-509.269z" />
<glyph unicode="&#xe91a;" horiz-adv-x="1764" d="M1733.803 448c0-281.771-227.556-512-512-512-281.771 0-512 230.229-512 512 0 281.714 227.556 512 509.269 512 287.175 0 514.731-230.286 514.731-512z" />
<glyph unicode="&#xe91b;" horiz-adv-x="1764" d="M1048.405 445.269c0 37.945-5.404 73.159-10.809 108.373h-314.311c2.731 18.944 8.135 35.214 13.596 54.158h281.714c-6.319 20.953-13.682 38.899-22.522 55.956l0.847-1.798h-238.364c8.078 19.001 18.944 35.271 29.753 54.215h181.476c-11.683 20.62-25.135 38.403-40.606 54.203l0.044-0.045h-100.238c16.213 19.001 32.484 35.271 51.428 51.484-87.040 81.579-204.8 130.048-333.54 132.722v-1018.254c129.707 2.048 245.874 52.907 336.27 132.779 18.944 16.213 35.214 35.214 51.484 54.158h-105.643c-13.54 16.27-27.136 35.271-37.945 51.484h181.476c10.609 15.527 20.569 33.307 28.929 51.961l0.88 2.198h-241.095c-7.975 15.273-15.32 33.24-21.017 51.926l-0.6 2.289h281.714c16.213 51.086 27.079 105.244 27.079 162.133z" />
<glyph unicode="&#xe91c;" horiz-adv-x="1764" d="M720.555 317.952l8.135 46.080c-2.731 0-8.135-2.731-13.54-2.731-18.944 0-21.675 10.809-18.944 16.213l16.213 94.834h29.81l8.135 51.484h-27.079l5.404 32.484h-54.158s-32.54-178.802-32.54-200.476c0-32.427 19.001-46.023 43.349-46.023 16.27 0 29.81 5.404 35.271 8.135zM739.442 404.651c0-75.89 51.484-94.834 94.834-94.834 40.619 0 56.889 8.135 56.889 8.135l10.809 51.484s-29.81-13.596-56.889-13.596c-59.563 0-48.754 43.349-48.754 43.349h111.047s8.135 35.271 8.135 48.754c0 35.271-18.944 78.564-78.507 78.564-56.889 5.461-97.564-54.158-97.564-121.856zM834.276 483.157c29.753 0 24.348-35.214 24.348-37.888h-59.563c0 2.674 5.404 37.945 35.214 37.945zM1178.34 317.952l10.809 59.563s-27.079-13.54-46.080-13.54c-37.888 0-54.158 29.81-54.158 62.35 0 64.967 32.54 100.238 70.485 100.238 27.079 0 48.754-16.27 48.754-16.27l8.135 56.889s-32.54 13.54-62.35 13.54c-62.293 0-124.587-54.158-124.587-157.127 0-67.698 32.484-113.778 97.508-113.778 21.675 0 51.484 8.135 51.484 8.135zM422.514 531.968c-37.945 0-65.024-10.809-65.024-10.809l-8.135-46.080s24.405 10.809 59.62 10.809c18.944 0 35.214-2.674 35.214-18.944 0-10.809-2.731-13.54-2.731-13.54h-24.405c-46.023 0-97.508-19.001-97.508-81.294 0-48.754 32.54-59.563 51.484-59.563 37.945 0 54.158 24.348 56.889 24.348l-2.731-21.618h48.754l21.675 148.935c0 65.024-54.158 67.698-73.102 67.698zM433.323 410.055c0-8.135-5.404-51.484-37.888-51.484-16.27 0-21.675 13.54-21.675 21.675 0 13.54 8.078 32.484 48.754 32.484 8.135-2.674 10.809-2.674 10.809-2.674zM547.214 312.548c13.54 0 81.237-2.731 81.237 70.428 0 67.698-65.024 54.158-65.024 81.237 0 13.54 10.809 19.001 29.81 19.001 8.135 0 37.945-2.731 37.945-2.731l8.135 48.754s-19.001 5.404-51.484 5.404c-40.619 0-81.294-16.213-81.294-70.428 0-62.293 67.698-56.889 67.698-81.237 0-16.27-18.887-19.001-32.427-19.001-24.462 0-48.811 8.135-48.811 8.135l-8.135-48.754c2.731-5.404 16.27-10.809 62.35-10.809zM1628.103 575.317l-10.809-73.159s-21.732 27.079-51.541 27.079c-48.754 0-92.103-59.563-92.103-130.048 0-43.292 21.675-89.372 67.698-89.372 32.54 0 51.541 21.675 51.541 21.675l-2.731-18.944h54.158l40.676 260.039-56.889 2.731zM1603.698 431.73c0-29.81-13.54-67.698-43.349-67.698-18.944 0-29.81 16.213-29.81 43.292 0 43.349 19.001 70.428 43.349 70.428 19.001 0 29.81-13.54 29.81-46.080zM127.26 315.221l32.484 195.072 5.404-195.072h37.945l70.428 195.072-29.81-195.072h56.889l43.349 260.096h-89.372l-54.158-159.858-2.731 159.858h-78.564l-43.349-260.096h51.484zM967.054 315.221c16.27 89.429 18.944 162.532 56.889 149.049 5.404 35.157 13.54 48.697 18.944 62.236h-10.809c-24.405 0-43.349-32.427-43.349-32.427l5.404 29.753h-51.484l-35.214-211.285h59.676v2.674zM1302.926 531.968c-37.888 0-65.024-10.809-65.024-10.809l-8.078-46.080s24.348 10.809 59.563 10.809c19.001 0 35.271-2.674 35.271-18.944 0-10.809-2.731-13.54-2.731-13.54h-24.405c-46.080 0-97.508-19.001-97.508-81.294 0-48.754 32.484-59.563 51.484-59.563 37.888 0 54.158 24.348 56.889 24.348l-2.731-21.618h48.754l21.675 148.935c2.731 65.024-54.158 67.698-73.159 67.698zM1316.466 410.055c0-8.135-5.404-51.484-37.888-51.484-16.27 0-21.675 13.54-21.675 21.675 0 13.54 8.135 32.484 48.754 32.484 8.135-2.674 8.135-2.674 10.809-2.674zM1422.165 315.221c16.27 89.429 18.944 162.532 56.889 149.049 5.404 35.157 13.54 48.697 18.944 62.236h-10.809c-24.405 0-43.349-32.427-43.349-32.427l5.404 29.753h-51.484l-35.214-211.285h59.676v2.674z" />
<glyph unicode="&#xe921;" glyph-name="payment" d="M917.675 745.173c15.531-15.573 23.339-34.475 23.339-56.661v-480c0-22.229-7.808-41.131-23.339-56.661-14.030-14.411-33.618-23.351-55.293-23.351-0.481 0-0.961 0.004-1.44 0.013l0.072-0.001h-693.333c-22.229 0-41.131 7.765-56.661 23.339-14.411 14.010-23.352 33.581-23.352 55.24 0 0.5 0.005 0.998 0.014 1.495l-0.001-0.074v480c0 22.229 7.765 41.088 23.339 56.661 14.043 14.411 33.642 23.35 55.329 23.35 0.469 0 0.936-0.004 1.403-0.012l-0.070 0.001h693.333c22.229 0 41.131-7.808 56.661-23.339zM148.949 707.243c-4.894-4.671-7.937-11.245-7.937-18.53 0-0.070 0-0.141 0.001-0.211v0.011-53.333h746.667v53.333c0 0.060 0.001 0.13 0.001 0.2 0 7.285-3.043 13.859-7.927 18.521l-0.010 0.009c-4.658 4.894-11.22 7.937-18.494 7.937-0.083 0-0.166 0-0.249-0.001h-693.32c-0.070 0.001-0.153 0.001-0.237 0.001-7.274 0-13.836-3.044-18.484-7.927l-0.010-0.011zM141.013 501.845h746.667v80h-746.667v-80zM879.787 189.739c4.894 4.671 7.937 11.245 7.937 18.53 0 0.070 0 0.141-0.001 0.211v-0.011 240h-746.667v-240c0-7.211 2.645-13.483 7.936-18.731 4.671-4.894 11.245-7.937 18.53-7.937 0.070 0 0.141 0 0.211 0.001h693.322c0.033 0 0.071 0 0.11 0 7.313 0 13.916 3.041 18.613 7.928l0.008 0.009zM426.453 333.909c4.894-4.678 7.937-11.258 7.937-18.548 0-0.064 0-0.128-0.001-0.192v0.010c0.001-0.070 0.001-0.153 0.001-0.237 0-7.274-3.044-13.836-7.927-18.484l-0.011-0.010c-4.678-4.894-11.258-7.937-18.548-7.937-0.064 0-0.128 0-0.192 0.001h-186.699c-0.070-0.001-0.153-0.001-0.237-0.001-7.274 0-13.836 3.044-18.484 7.927l-0.010 0.011c-4.894 4.671-7.937 11.245-7.937 18.53 0 0.070 0 0.141 0.001 0.211v-0.011c0 0.060-0.001 0.13-0.001 0.2 0 7.285 3.043 13.859 7.927 18.521l0.010 0.009c4.671 4.894 11.245 7.937 18.53 7.937 0.070 0 0.141 0 0.211-0.001h186.656c7.211 0 13.483-2.645 18.773-7.936zM826.453 333.909c4.894-4.678 7.937-11.258 7.937-18.548 0-0.064 0-0.128-0.001-0.192v0.010c0.001-0.070 0.001-0.153 0.001-0.237 0-7.274-3.044-13.836-7.927-18.484l-0.011-0.010c-4.678-4.894-11.258-7.937-18.548-7.937-0.064 0-0.128 0-0.192 0.001h-53.323c-0.070-0.001-0.153-0.001-0.237-0.001-7.274 0-13.836 3.044-18.484 7.927l-0.010 0.011c-4.894 4.671-7.937 11.245-7.937 18.53 0 0.070 0 0.141 0.001 0.211v-0.011c0 0.060-0.001 0.13-0.001 0.2 0 7.285 3.043 13.859 7.927 18.521l0.010 0.009c4.671 4.894 11.245 7.937 18.53 7.937 0.070 0 0.141 0 0.211-0.001h53.322c7.168 0 13.44-2.645 18.731-7.936z" />
<glyph unicode="&#xe922;" horiz-adv-x="3413" d="M2290.142 898.833h-259.55c-15.223 0-30.515-15.292-38.161-30.515l-106.837-671.676c0-15.223 7.646-22.869 22.938-22.869h137.353c15.292 0 22.869 7.646 22.869 22.869l30.583 190.805c0 15.292 15.223 30.515 38.161 30.515h83.968c175.445 0 274.705 83.968 297.643 251.904 15.223 68.676 0 129.707-30.583 167.936-45.739 38.093-114.483 61.030-198.383 61.030zM2320.657 646.929c-15.292-91.546-83.968-91.546-152.644-91.546h-45.807l30.515 175.514c0 7.646 7.646 15.292 22.938 15.292h15.223c45.807 0 91.614 0 114.483-30.515 15.292-7.646 15.292-30.583 15.292-68.745z" />
<glyph unicode="&#xe923;" horiz-adv-x="3413" d="M420.25 898.833h-259.482c-15.292 0-30.583-15.292-38.229-30.515l-106.837-671.676c0-15.223 7.646-22.869 22.938-22.869h122.129c15.223 0 30.515 15.223 38.161 30.515l30.515 183.159c0 15.292 15.292 30.515 38.161 30.515h83.968c175.514 0 274.773 83.968 297.643 251.904 15.292 68.676 0 129.707-30.515 167.936-45.807 38.093-106.837 61.030-198.451 61.030zM450.765 646.929c-15.223-91.546-83.968-91.546-152.644-91.546h-38.161l30.515 175.514c0 7.646 7.646 15.292 22.938 15.292h15.223c45.807 0 91.614 0 114.483-30.515 7.646-7.646 15.292-30.583 7.646-68.745zM1206.272 654.575h-122.061c-7.646 0-22.869-7.646-22.869-15.223l-7.646-38.229-7.646 15.292c-30.515 38.229-83.968 53.453-144.998 53.453-137.421 0-259.482-106.837-282.419-251.904-15.223-76.322 7.646-144.998 45.807-190.805 38.161-45.739 91.614-61.030 160.29-61.030 114.483 0 175.514 68.676 175.514 68.676l-7.646-38.161c0-15.223 7.646-22.869 22.938-22.869h114.483c15.292 0 30.515 15.223 38.161 30.515l68.676 427.349c-7.646 7.714-22.869 22.938-30.515 22.938zM1030.827 410.453c-15.292-68.745-68.745-122.197-145.067-122.197-38.161 0-68.676 15.292-83.968 30.583-15.223 22.869-22.869 53.453-22.869 91.614 7.646 68.676 68.676 122.061 137.353 122.061 38.229 0 61.099-15.223 83.968-30.515 22.938-22.869 30.515-61.030 30.515-91.546z" />
<glyph unicode="&#xe924;" horiz-adv-x="3413" d="M3068.587 654.575h-122.129c-7.578 0-22.869-7.646-22.869-15.223l-7.646-38.229-7.646 15.292c-30.515 38.229-83.968 53.453-144.998 53.453-137.353 0-259.482-106.837-282.351-251.904-15.292-76.322 7.578-144.998 45.739-190.805 38.229-45.739 91.614-61.030 160.29-61.030 114.483 0 175.582 68.676 175.582 68.676l-7.646-38.161c0-15.223 7.646-22.869 22.869-22.869h114.483c15.292 0 30.515 15.223 38.229 30.515l68.608 427.349c-7.578 7.714-15.223 22.938-30.515 22.938zM2893.141 410.453c-15.292-68.745-68.676-122.197-144.998-122.197-38.229 0-68.745 15.292-83.968 30.583-15.292 22.869-22.938 53.453-22.938 91.614 7.646 68.676 68.745 122.061 137.421 122.061 38.161 0 61.030-15.223 83.968-30.515 30.515-22.869 38.161-61.030 30.515-91.546z" />
<glyph unicode="&#xe925;" horiz-adv-x="3413" d="M1870.37 654.575h-129.707c-15.292 0-22.938-7.646-30.583-15.223l-167.936-259.618-76.322 244.395c-7.578 15.292-15.223 22.869-38.161 22.869h-122.061c-15.292 0-22.938-15.223-22.938-30.515l137.421-404.48-129.775-183.159c-7.646-15.292 0-38.229 15.292-38.229h122.061c15.292 0 22.938 7.646 30.583 15.292l419.772 602.931c22.869 22.938 7.578 45.807-7.646 45.807z" />
<glyph unicode="&#xe926;" horiz-adv-x="3413" d="M3213.653 875.895l-106.837-686.899c0-15.223 7.646-22.869 22.869-22.869h106.837c15.292 0 30.583 15.223 38.229 30.515l106.837 671.676c0 15.223-7.646 22.869-22.938 22.869h-122.129c-7.578 7.646-15.223 0-22.869-15.292z" />
<glyph unicode="&#xe927;" glyph-name="pint" horiz-adv-x="992" d="M992 448c0-274-222-496-496-496-51.2 0-100.4 7.8-146.8 22.2 20.2 33 50.4 87 61.6 130 6 23.2 30.8 118 30.8 118 16.2-30.8 63.4-57 113.6-57 149.6 0 257.4 137.6 257.4 308.6 0 163.8-133.8 286.4-305.8 286.4-214 0-327.8-143.6-327.8-300.2 0-72.8 38.8-163.4 100.6-192.2 9.4-4.4 14.4-2.4 16.6 6.6 1.6 6.8 10 40.6 13.8 56.2 1.2 5 0.6 9.4-3.4 14.2-20.2 25-36.6 70.6-36.6 113.2 0 109.4 82.8 215.2 224 215.2 121.8 0 207.2-83 207.2-201.8 0-134.2-67.8-227.2-156-227.2-48.6 0-85.2 40.2-73.4 89.6 14 59 41 122.6 41 165.2 0 38-20.4 69.8-62.8 69.8-49.8 0-89.8-51.4-89.8-120.4 0-44 14.8-73.6 14.8-73.6s-49-207.6-58-246.4c-10-42.8-6-103.2-1.8-142.4-184.4 72.2-315.2 251.8-315.2 462 0 274 222 496 496 496s496-222 496-496z" />
<glyph unicode="&#xe928;" glyph-name="remove" d="M202.283 36.096c-4.894 4.678-7.937 11.258-7.937 18.548 0 0.064 0 0.128 0.001 0.192v-0.010 640h-53.333c-0.070-0.001-0.153-0.001-0.237-0.001-7.274 0-13.836 3.044-18.484 7.927l-0.010 0.011c-4.893 4.651-7.937 11.208-7.937 18.476 0 0.090 0 0.179 0.001 0.269v-0.014c0 0.060-0.001 0.13-0.001 0.2 0 7.285 3.043 13.859 7.927 18.521l0.010 0.009c4.698 4.895 11.295 7.936 18.603 7.936 0.045 0 0.090 0 0.135 0h213.326v106.667c0 0.060-0.001 0.13-0.001 0.2 0 7.285 3.043 13.859 7.927 18.521l0.010 0.009c4.658 4.894 11.22 7.937 18.494 7.937 0.083 0 0.166 0 0.249-0.001h266.654c7.211 0 13.44-2.688 18.731-7.936 4.894-4.678 7.937-11.258 7.937-18.548 0-0.064 0-0.128-0.001-0.192v0.010-106.667h213.333c7.211 0 13.44-2.688 18.731-7.936 4.894-4.678 7.937-11.258 7.937-18.548 0-0.064 0-0.128-0.001-0.192v0.010c0-7.253-2.645-13.483-7.936-18.731-4.678-4.894-11.258-7.937-18.548-7.937-0.064 0-0.128 0-0.192 0.001h-53.323v-640c0-0.060 0.001-0.13 0.001-0.2 0-7.285-3.043-13.859-7.927-18.521l-0.010-0.009c-4.678-4.894-11.258-7.937-18.548-7.937-0.064 0-0.128 0-0.192 0.001h-586.657c-0.070-0.001-0.153-0.001-0.237-0.001-7.274 0-13.836 3.044-18.484 7.927l-0.010 0.011zM781.013 694.827h-533.333v-613.333h533.333v613.333zM399.787 553.6c4.894-4.678 7.937-11.258 7.937-18.548 0-0.064 0-0.128-0.001-0.192v0.010-293.333c0-7.253-2.645-13.483-7.936-18.731-4.678-4.894-11.258-7.937-18.548-7.937-0.064 0-0.128 0-0.192 0.001h0.010c-0.070-0.001-0.153-0.001-0.237-0.001-7.274 0-13.836 3.044-18.484 7.927l-0.010 0.011c-4.894 4.658-7.937 11.22-7.937 18.494 0 0.083 0 0.166 0.001 0.249v-0.013 293.291c0 0.060-0.001 0.13-0.001 0.2 0 7.285 3.043 13.859 7.927 18.521l0.010 0.009c4.631 4.893 11.17 7.937 18.421 7.937 0.094 0 0.188-0.001 0.281-0.002h-0.014c7.211 0 13.483-2.645 18.773-7.893zM407.68 748.16h213.333v80h-213.333v-80zM533.12 553.6c4.894-4.678 7.937-11.258 7.937-18.548 0-0.064 0-0.128-0.001-0.192v0.010-293.333c0-7.253-2.645-13.483-7.936-18.731-4.678-4.894-11.258-7.937-18.548-7.937-0.064 0-0.128 0-0.192 0.001h0.010c-0.070-0.001-0.153-0.001-0.237-0.001-7.274 0-13.836 3.044-18.484 7.927l-0.010 0.011c-4.894 4.658-7.937 11.22-7.937 18.494 0 0.083 0 0.166 0.001 0.249v-0.013 293.291c0 0.060-0.001 0.13-0.001 0.2 0 7.285 3.043 13.859 7.927 18.521l0.010 0.009c4.698 4.895 11.295 7.936 18.603 7.936 0.045 0 0.090 0 0.135 0h-0.007c7.168 0 13.44-2.645 18.731-7.893zM628.949 553.6c4.698 4.895 11.295 7.936 18.603 7.936 0.045 0 0.090 0 0.135 0h-0.007c7.211 0 13.44-2.688 18.731-7.936 4.894-4.678 7.937-11.258 7.937-18.548 0-0.064 0-0.128-0.001-0.192v0.010-293.333c0-7.253-2.645-13.483-7.936-18.731-4.678-4.894-11.258-7.937-18.548-7.937-0.064 0-0.128 0-0.192 0.001h0.010c-0.070-0.001-0.153-0.001-0.237-0.001-7.274 0-13.836 3.044-18.484 7.927l-0.010 0.011c-4.894 4.658-7.937 11.22-7.937 18.494 0 0.083 0 0.166 0.001 0.249v-0.013 293.291c0 7.211 2.645 13.483 7.936 18.773z" />
<glyph unicode="&#xe92a;" glyph-name="search" d="M565.803 854.4c42.894-18.384 79.532-43.398 110.434-74.167l-0.012 0.012c30.761-30.887 55.776-67.525 73.286-108.157l0.868-2.264c17.131-39.245 27.099-84.971 27.099-133.026 0-0.693-0.002-1.386-0.006-2.078l0.001 0.107c0.002-0.452 0.003-0.986 0.003-1.521 0-43.361-8.254-84.794-23.278-122.813l0.789 2.265c-15.345-39.516-35.891-73.584-61.263-103.419l0.42 0.507 209.152-209.152c4.992-5.589 7.509-11.947 7.509-19.157s-2.517-13.611-7.509-19.157c-2.773-2.219-5.845-4.053-9.173-5.419s-6.656-2.091-9.984-2.091-6.656 0.725-9.984 2.091-6.357 3.2-9.173 5.419l-209.152 209.152c-29.995-25.6-64.299-45.824-102.912-60.843s-79.317-22.528-122.112-22.528c-0.65-0.004-1.417-0.007-2.186-0.007-47.982 0-93.635 9.969-135.002 27.948l2.19-0.848c-42.906 18.349-79.549 43.368-110.429 74.162l0.008-0.008c-30.781 30.876-55.799 67.518-73.29 108.162l-0.865 2.26c-17.131 39.223-27.099 84.926-27.099 132.957 0 0.717 0.002 1.434 0.007 2.15l-0.001-0.11c-0.004 0.586-0.006 1.278-0.006 1.971 0 48.055 9.968 93.781 27.949 135.225l-0.85-2.199c18.379 42.896 43.393 79.534 74.166 110.433l-0.012-0.012c30.876 30.781 67.518 55.799 108.162 73.29l2.26 0.865c42.197 18.048 87.211 27.093 134.997 27.093s92.757-9.045 134.997-27.093zM160.384 420.651c15.275-35.584 36.267-66.688 62.933-93.355s57.771-47.659 93.355-62.933c35.541-15.275 73.643-22.912 114.176-22.912s78.635 7.637 114.176 22.912c35.541 15.232 66.688 36.267 93.355 62.933s47.616 57.771 62.933 93.355c14.488 33.093 22.919 71.66 22.919 112.196 0 0.696-0.002 1.392-0.007 2.086l0.001-0.107c0 40.533-7.637 78.592-22.912 114.176-15.275 35.541-36.267 66.688-62.933 93.355s-57.771 47.616-93.355 62.933c-35.627 15.189-73.685 22.869-114.219 22.869s-78.635-7.68-114.176-22.912c-35.541-15.275-66.688-36.267-93.355-62.933s-47.616-57.771-62.891-93.312c-14.488-33.063-22.92-71.598-22.92-112.102 0-0.729 0.003-1.458 0.008-2.186l-0.001 0.112c0-40.576 7.595-78.635 22.912-114.176z" />
<glyph unicode="&#xe92b;" glyph-name="shipping" d="M935.68 700.245l1.237-1.237c0.299-0.299 0.427-0.725 0.427-1.237l1.664-5.419c0.506-1.614 0.815-3.473 0.853-5.399v-640.020c0-0.060 0.001-0.13 0.001-0.2 0-7.285-3.043-13.859-7.927-18.521l-0.010-0.009c-4.678-4.894-11.258-7.937-18.548-7.937-0.064 0-0.128 0-0.192 0.001h-800.033c-0.060 0-0.13-0.001-0.2-0.001-7.285 0-13.859 3.043-18.521 7.927l-0.009 0.010c-4.894 4.678-7.937 11.258-7.937 18.548 0 0.064 0 0.128 0.001 0.192v-0.010 640c0.038 1.946 0.347 3.805 0.891 5.561l-0.038-0.142 1.664 5.419c0 0.555 0.128 0.939 0.427 1.237 0.438 0.395 0.842 0.799 1.224 1.223l0.013 0.015c0.642 1.269 1.337 2.36 2.125 3.374l-0.034-0.046c0.712 0.937 1.397 1.758 2.116 2.545l-0.025-0.028 0.853 0.853 186.667 160c2.393 1.977 5.137 3.654 8.103 4.91l0.217 0.082c2.635 1.054 5.689 1.666 8.886 1.666 0.101 0 0.202-0.001 0.303-0.002h426.652c3.328 0 6.357-0.555 9.173-1.664 2.773-1.109 5.547-2.773 8.32-4.992l186.667-160v-0.853c1.174-0.613 2.147-1.463 2.885-2.493l0.017-0.024c0.732-0.965 1.425-2.054 2.028-3.198l0.062-0.13zM886.485 73.6v586.667h-240v-240c0.001-0.070 0.001-0.153 0.001-0.237 0-7.274-3.044-13.836-7.927-18.484l-0.011-0.010c-4.678-4.894-11.258-7.937-18.548-7.937-0.064 0-0.128 0-0.192 0.001h-213.323c-0.060 0-0.13-0.001-0.2-0.001-7.285 0-13.859 3.043-18.521 7.927l-0.009 0.010c-4.894 4.671-7.937 11.245-7.937 18.53 0 0.070 0 0.141 0.001 0.211v-0.011 240h-240v-586.667h746.667zM309.845 820.267l-125.013-106.667h205.013l53.333 106.667h-133.333zM433.152 446.933h160v213.333h-160v-213.333zM503.168 820.267l-53.333-106.667h126.677l-53.333 106.667h-20.011zM841.515 713.6l-125.013 106.667h-133.333l53.333-106.667h205.013z" />
<glyph unicode="&#xe92c;" horiz-adv-x="3129" d="M1042.204 516.722c16.612-10.24 50.46-23.666 81.18-20.48 26.852 0 44.146 13.426 44.146 33.906 0 16.668-10.24 30.094-40.277 47.332-37.092 20.48-64 50.517-64 90.852 0 70.997 60.757 118.329 145.18 118.329 37.148 0 67.812-7.054 84.48-16.668l-23.666-70.997c-13.483 7.054-37.148 13.426-60.814 13.426-26.852 0-47.332-13.426-47.332-33.849 0-16.668 13.483-26.908 37.148-40.334 37.092-23.666 70.997-53.703 70.997-94.663 0-77.369-64-124.7-151.609-121.515-40.277 0-77.369 10.24-97.849 23.666l22.357 70.997zM1288.42 435.484l97.849 505.913h97.849l-37.035-202.752v-3.186c26.852 30.094 60.757 50.517 104.903 50.517 50.517 0 81.18-33.849 81.18-90.795 0-16.612-3.186-40.277-6.997-60.757l-37.092-198.94h-97.849l37.092 195.698c3.186 13.483 3.186 26.908 3.186 40.334 0 20.48-10.24 37.092-30.094 37.092-30.037 0-63.943-37.092-77.369-101.035l-33.906-168.903h-101.035v-3.186h-0.683zM1993.899 648.476c0-121.515-77.369-226.418-195.698-226.418-87.609 0-134.997 60.757-134.997 138.183 0 121.515 77.369 226.418 198.94 226.418 87.609 0 131.755-67.812 131.755-138.183zM1761.052 560.242c0-37.092 13.483-64 47.332-64 53.76 0 81.237 94.663 81.237 155.42 0 30.094-10.24 60.757-47.332 60.757-51.2-3.186-81.237-94.606-81.237-152.178zM1966.99 300.544l67.812 351.118c7.054 40.334 16.612 87.609 20.48 121.572h87.609l-7.054-33.906c26.908 33.906 64 53.703 104.903 53.703 70.997 0 101.092-63.943 101.092-128.569 0-121.515-77.369-239.844-192.569-239.844-16.612-3.186-40.277 10.24-50.517 10.24h-3.186l-26.852-134.94h-101.717v0.626zM2108.359 509.668c10.24-10.24 23.666-13.426 40.277-13.426 53.76 0 94.663 90.852 94.663 155.42 0 26.908-10.24 53.76-40.277 53.76-33.906 0-67.812-40.334-77.369-101.092l-17.294-94.663zM2351.445 435.484l67.812 337.749h101.035l-67.812-337.749h-101.035zM2480.014 807.083c-26.852 0-47.332 26.908-47.332 57.572 0 33.906 23.666 60.757 57.572 60.757 30.037 0 50.517-26.852 50.517-53.703-3.868-37.717-30.72-64.626-60.757-64.626zM2536.903 435.484l53.703 269.938h-47.332l13.426 67.812h47.332l3.243 20.48c6.997 40.277 23.666 84.366 57.515 114.46 26.908 23.666 60.757 33.906 97.849 33.906 23.723 0 44.146-3.243 53.76-7.054l-20.48-77.369c-10.24 3.186-20.48 6.997-30.037 6.997-33.906 0-53.76-33.906-57.572-67.755l-10.24-23.666h67.812l-13.426-67.812h-67.868l-53.703-269.938h-94.037zM2891.264 773.234l16.612-155.42c3.186-33.906 7.054-47.332 10.24-81.237 7.054 33.906 13.426 44.089 30.094 81.237l60.757 155.42h101.035l-121.515-256.512c-44.146-87.609-84.423-151.552-131.755-195.698-33.906-33.906-77.369-47.332-97.849-53.76l-26.908 84.423c16.668 7.054 37.092 13.483 57.572 26.908 23.666 16.612 44.146 37.092 53.76 60.757 3.186 3.186 3.186 6.997 3.186 13.426l-60.757 320.455h105.529z" />
<glyph unicode="&#xe92d;" horiz-adv-x="3129" d="M1151.545 25.543l32.654 2.56c1.252-13.483 5.12-23.666 10.809-32.654 5.803-8.306 14.791-15.36 26.283-20.48 12.117-5.12 25.6-7.68 40.277-7.68 13.426 0 24.917 1.934 35.157 5.803 9.125 3.103 16.747 8.633 22.335 15.822l0.080 0.107c4.84 6.138 7.764 13.984 7.764 22.513 0 8.165-2.679 15.705-7.207 21.787l0.069-0.097c-4.494 6.372-12.8 11.492-23.666 15.36-11.832 4.118-27.454 8.505-43.37 12.117l-3.279 0.626c-24.348 5.746-40.96 11.548-50.574 16.668-11.563 5.616-21.070 13.883-28.002 24.047l-0.158 0.245c-5.622 8.681-8.964 19.293-8.964 30.685 0 0.673 0.012 1.342 0.035 2.009l-0.003-0.097c0 13.426 3.868 25.6 11.492 37.092 7.68 11.548 18.603 20.48 33.28 26.226 14.734 5.746 30.72 8.988 47.957 8.988 19.228 0 36.466-3.243 51.826-9.614 14.734-6.372 26.226-15.36 34.532-27.477 8.306-12.174 12.174-26.226 12.8-41.586l-33.28-2.56c-1.877 16.612-7.68 29.412-17.863 37.717-10.24 8.306-25.6 12.8-46.080 12.8-21.106 0-36.409-3.868-46.080-11.492-9.557-7.68-14.677-17.294-14.677-28.16 0-9.614 3.186-17.294 10.24-23.040 6.372-6.372 24.292-12.117 52.452-18.546 28.103-6.372 47.957-12.174 58.197-16.612 15.36-7.054 26.852-15.986 33.906-26.852 6.761-10.619 10.775-23.56 10.775-37.438 0-14.685-4.495-28.321-12.183-39.606l0.157 0.244c-8.761-12.424-20.437-22.239-34.061-28.566l-0.527-0.22c-14.677-6.997-31.972-10.24-50.517-10.24-23.666 0-43.52 3.243-59.506 10.24-15.712 6.619-28.571 17.427-37.525 31.034l-0.193 0.312c-9.36 13.434-15.063 30.030-15.359 47.941l-0.001 0.074zM1467.563-58.88v262.827h190.009v-31.289h-155.477v-80.612h145.18v-30.72h-145.18v-89.543h161.166v-31.289h-195.698v0.569zM1958.059 33.223l34.532-8.988c-7.054-28.786-20.48-50.517-39.652-65.252-19.172-14.677-42.212-22.357-69.746-22.357-28.103 0-51.143 5.746-69.063 17.237-18.146 12.029-32.104 29.086-40.030 49.181l-0.247 0.71c-8.863 20.79-14.026 44.975-14.052 70.362v0.010c0 27.534 5.12 51.2 15.929 71.68 10.24 20.48 25.6 35.783 44.828 46.649 17.759 10.071 39.007 16.007 61.641 16.007 0.809 0 1.617-0.008 2.423-0.023l-0.121 0.002c26.169 0 48.583-6.372 66.56-19.797 17.863-13.483 30.663-32.028 37.717-56.32l-34.588-8.306c-6.372 19.172-14.677 33.28-26.169 41.529-11.548 8.988-26.226 12.857-43.52 12.857-20.48 0-37.092-5.12-50.517-14.734-13.328-9.546-23.38-22.907-28.626-38.479l-0.16-0.547c-5.265-14.782-8.309-31.834-8.309-49.596 0-0.324 0.001-0.648 0.003-0.971v0.050c0-22.357 3.186-41.529 9.557-58.823 6.428-16.668 16.668-29.412 30.72-37.092 13.426-8.363 28.786-12.174 44.772-12.174 19.172 0 35.84 5.746 49.266 16.612 13.426 12.174 22.357 28.786 26.852 50.574zM2267.022 203.947h34.588v-151.552c0-26.226-3.243-47.332-8.988-62.692-5.689-15.36-16.612-28.16-32.597-37.717-15.36-9.614-35.84-14.734-61.44-14.734-24.917 0-44.715 4.494-60.075 12.8-15.226 7.955-26.934 20.896-33.115 36.617l-0.165 0.475c-6.372 15.986-10.24 37.717-10.24 65.877v151.609h34.532v-151.609c0-23.040 1.934-39.652 6.428-50.517 4.247-10.734 11.847-19.382 21.489-24.848l0.243-0.127c10.24-5.689 23.040-8.932 37.717-8.932 25.6 0 44.146 5.746 55.012 17.237 10.866 11.548 16.668 33.906 16.668 67.186v150.926zM2419.2-58.88v262.827h116.452c23.666 0 40.96-2.56 53.703-6.997 12.174-4.551 21.732-12.8 29.412-24.974 7.054-12.117 10.866-24.917 10.866-39.652 0-18.546-5.689-34.532-17.863-47.332s-30.72-21.049-55.694-24.292c8.988-4.494 15.986-8.988 21.106-12.8 10.24-9.614 19.854-21.106 28.786-35.157l45.454-71.68h-43.52l-34.532 55.012c-9.077 14.442-17.306 26.331-25.982 37.865l1.008-1.399c-4.814 6.915-10.757 12.676-17.618 17.145l-0.245 0.149c-4.581 3.075-9.916 5.482-15.634 6.922l-0.351 0.075c-5.356 0.838-11.533 1.317-17.822 1.317-0.494 0-0.988-0.003-1.481-0.009l0.075 0.001h-40.277v-117.077h-35.84zM2453.788 88.178h74.809c15.986 0 28.16 1.934 37.092 5.12 8.695 2.783 15.808 8.438 20.389 15.828l0.091 0.158c4.338 6.697 6.939 14.872 6.997 23.65v0.015c0.004 0.214 0.006 0.466 0.006 0.719 0 11.906-5.173 22.603-13.394 29.968l-0.038 0.034c-8.932 8.306-22.983 12.174-42.837 12.174h-83.115v-87.609zM2743.58-58.88v262.827h189.952v-31.289h-155.42v-80.612h145.18v-30.72h-145.18v-89.543h161.166v-31.289h-195.698v0.569z" />
<glyph unicode="&#xe92e;" horiz-adv-x="3129" d="M817.607 710.542v38.969h-1.252c-42.212-11.548-85.106-21.106-129.877-28.786v3.812c0 137.614-101.66 227.783-230.229 235.463-128.569-7.68-230.286-97.849-230.286-235.406v-3.812c-52.763 9.036-96.544 19.018-139.473 31.037l9.653-2.308h-1.252v-39.026c0-264.818-21.106-523.207-60.757-771.982h842.98c-37.744 231.955-59.377 499.393-59.506 771.86v0.122zM563.769 105.472h-214.357l67.129 197.006c-44.439 16.944-75.435 59.209-75.435 108.713 0 0.001 0 0.001 0 0.002v0c0 63.937 51.831 115.769 115.769 115.769s115.769-51.831 115.769-115.769v0c0 0 0-0.001 0-0.002 0-49.504-30.996-91.769-74.639-108.446l-0.796-0.267 66.503-197.006zM659.058 716.288c-65.252-9.614-133.063-15.36-202.752-16.612-72.796 1.372-142.911 7.363-211.6 17.707l8.848-1.095v8.306c-0.057 122.197 89.486 200.249 202.695 207.872 113.209-7.68 202.752-85.675 202.752-207.872v-8.306z" />
<glyph unicode="&#xe92f;" glyph-name="skype" horiz-adv-x="896" d="M849.4 360.4c5.8 28 9.4 57.8 9.4 87.6 0 227-183.8 410.6-410.6 410.6-29.8 0-59.4-3.4-87.6-9.4-38 29.4-85.2 46.8-136.6 46.8-123.6 0-224-100.4-224-224 0-51.4 17.4-98.6 46.6-136.4-5.8-28-9.4-57.8-9.4-87.6 0-227 183.8-410.6 410.6-410.6 29.8 0 59.4 3.4 87.6 9.4 38-29.2 85.2-46.6 136.4-46.6 123.6 0 224 100.4 224 224 0.2 51.2-17.2 98.4-46.4 136.2zM460.2 177.4c-131.2 0-241 58.4-241 130 0 32 18 61.2 59 61.2 62.4 0 68.2-89.8 176.2-89.8 51.4 0 84.6 22.8 84.6 52.6 0 37.4-32 43.2-84 56-125 30.8-235.6 44-235.6 174.4 0 118.4 117.2 162.2 218.2 162.2 110.2 0 221.6-43.8 221.6-110.8 0-33.8-22.8-63.6-60.6-63.6-56.6 0-58.4 67-150 67-51.4 0-84-14-84-45 0-39.6 41.6-43.6 138.2-66 82.8-18.6 181.4-53.6 181.4-155.2 0-118.2-114.2-173-224-173z" />
<glyph unicode="&#xe930;" horiz-adv-x="2788" d="M386.105 960l-386.105-69.291v-529.465c32.768-70.884 83.058-136.533 150.187-194.105 66.162-57.173 145.465-104.22 235.918-140.174 89.884 35.954 169.244 83.058 235.918 140.174 67.129 57.628 117.419 123.221 150.187 194.105v529.465l-386.105 69.291z" />
<glyph unicode="&#xe931;" horiz-adv-x="2788" d="M323.755 341.618l-170.325 186.254 61.895 46.592 108.43-77.767 232.732 201.5 61.895-31.175-294.684-325.404z" />
<glyph unicode="&#xe932;" horiz-adv-x="2788" d="M1147.506 377.116c0 19.001 15.36 25.884 41.244 25.884 37.035 0 83.058-11.093 120.036-31.175v114.233c-34.784 14.048-75.123 22.198-117.365 22.198-0.939 0-1.877-0.004-2.814-0.012l0.143 0.001c-98.361 0-163.442-51.257-163.442-136.988 0-133.803 184.092-112.071 184.092-169.756 0-22.187-19.57-29.582-46.535-29.582-40.22 0-91.534 16.327-132.267 38.571v-115.314c44.942-19.57 90.453-27.477 132.267-27.477 100.466 0 169.756 49.721 169.756 136.42-1.024 144.441-185.116 118.5-185.116 172.942zM1474.389 605.070l-117.931-25.372-0.569-387.698c0-71.964 53.988-124.302 125.383-124.302 39.652 0 68.779 7.396 84.594 15.872v98.361c-15.36-6.372-91.989-28.558-91.989 42.837v171.918h91.989v103.083h-91.989l0.512 105.244zM1716.622 463.815l-7.964 36.011h-104.107v-423.708h121.060v287.232c28.558 36.978 77.255 30.72 92.046 25.372v111.616c-15.872 5.291-72.476 15.872-101.035-36.523zM1847.296 499.826h121.628v-423.708h-121.628v423.708zM1847.296 536.804l121.628 25.941v98.418l-121.628-25.941v-98.418zM2221.227 508.245c-47.616 0-77.767-22.187-94.663-37.547l-6.372 30.151h-106.325v-564.85l121.173 25.941 0.512 136.988c17.465-12.686 42.837-30.663 85.675-30.663 86.756 0 165.547 69.803 165.547 223.175-0.569 140.174-80.384 216.86-165.547 216.86zM2192.156 174.535c-28.558 0-45.511 10.012-57.116 22.756l-0.569 179.769c12.686 14.336 30.151 23.893 57.685 23.893 43.861 0 74.524-49.266 74.524-112.697 0-65.593-29.582-113.778-74.524-113.778zM2768.156 286.151c0 123.733-60.302 221.582-175.104 221.582-115.314 0-185.116-97.849-185.116-221.070 0-145.977 82.489-219.534 200.476-219.534 57.628 0 101.035 13.255 134.315 31.744v96.825c-32.768-16.441-70.827-26.453-118.443-26.453-47.104 0-88.86 16.384-94.151 73.5h236.942c0 6.884 1.081 31.744 1.081 43.406zM2529.052 332.117c0 54.5 33.337 77.255 64 77.255 29.582 0 60.871-22.756 60.871-77.255h-124.871zM1045.049 894.919c11.036 2.105 25.884 3.698 44.942 3.698 23.211 0 40.164-5.291 50.745-14.791 10.069-8.533 15.872-21.732 15.872-38.116s-4.779-29.070-13.767-38.628c-12.174-13.198-32.256-20.082-55.524-20.082-6.884 0-13.255 0.569-19.058 1.593v-72.476h-23.268v178.802zM1068.772 807.652c5.291-1.593 11.662-2.105 19.57-2.105 28.046 0 45.511 13.71 45.511 38.571 0 23.836-16.896 35.442-42.837 35.442-10.069 0-17.977-1.024-22.187-2.105v-69.803zM1298.375 782.222c0-48.128-33.337-69.234-64.512-69.234-35.442 0-62.407 25.884-62.407 67.129 0 43.406 28.558 69.291 64.512 69.291 36.978-0.512 62.407-27.477 62.407-67.129zM1195.236 780.686c0-28.558 16.384-50.29 39.652-50.29 22.756 0 39.708 21.163 39.708 50.802 0 22.187-11.093 50.233-39.14 50.233s-40.22-25.884-40.22-50.745zM1335.865 846.222l17.465-66.105c3.698-14.222 7.396-27.989 9.557-41.244h1.024c3.186 13.255 7.396 26.965 11.662 41.244l21.163 66.674h20.082l20.082-65.081c4.779-15.36 8.476-29.070 11.662-42.325h1.024c2.162 13.255 5.86 27.022 10.069 42.325l18.489 65.081h23.324l-41.813-130.105h-21.675l-20.082 61.838c-4.079 11.416-8.101 25.771-11.236 40.455l-0.426 2.382h-0.569c-3.129-15.36-7.396-29.013-11.605-42.837l-21.163-61.838h-22.187l-39.14 130.105h24.292v-0.569zM1534.748 776.42c0.569-31.744 21.163-44.942 44.373-44.942 16.953 0 27.022 3.186 36.011 6.827l4.267-16.896c-8.533-3.698-22.756-7.964-43.406-7.964-40.22 0-64 26.51-64 65.65s23.324 70.315 60.871 70.315c42.268 0 53.931-37.547 53.931-61.326 0-4.779-0.569-8.476-1.081-11.093h-91.022v-0.569zM1604.039 793.372c0.569 14.791-6.372 38.571-32.825 38.571-23.78 0-34.361-22.187-36.466-38.571h69.291zM1655.922 805.547c0 15.36-0.512 28.558-1.024 40.676h20.594l1.081-25.372h1.081c5.803 17.465 20.082 28.558 35.954 28.558 2.617 0 4.722-0.512 6.827-1.024v-22.187c-2.617 0.455-4.722 1.024-7.908 1.024-16.896 0-28.558-12.686-31.744-30.151-0.622-3.319-0.993-7.152-1.024-11.067v-69.318h-23.324v88.86h-0.512zM1754.283 776.42c0.569-31.744 21.163-44.942 44.43-44.942 16.953 0 26.965 3.186 36.011 6.827l4.21-16.896c-8.476-3.698-22.756-7.964-43.406-7.964-40.164 0-64 26.51-64 65.65s23.324 70.315 60.871 70.315c42.325 0 53.931-37.547 53.931-61.326 0-4.779-0.569-8.476-1.081-11.093h-90.965v-0.569zM1823.573 793.372c0.569 14.791-6.315 38.571-32.768 38.571-23.836 0-34.418-22.187-36.523-38.571h69.291zM1988.096 906.524v-157.013c0-11.662 0.569-24.917 1.081-33.906h-21.163l-1.081 22.756h-0.512c-7.396-14.279-23.324-25.372-44.43-25.372-31.232 0-55.524 26.396-55.524 66.105-0.569 43.349 26.453 69.803 58.14 69.803 20.139 0 33.337-9.5 39.14-20.082h0.569v77.71h23.78zM1964.828 792.804c0 3.186-0.569 6.884-1.081 10.069-3.695 15.837-17.66 27.465-34.353 27.534h-0.008c-24.348 0-39.14-21.732-39.14-50.29 0-26.453 12.686-48.128 38.628-48.128 15.872 0 30.151 10.581 34.873 28.046 1.138 3.186 1.138 6.372 1.138 10.069v22.756zM2083.271 716.117c0.455 8.988 1.024 22.187 1.024 33.849v157.127h23.268v-81.465h0.569c8.42 14.222 23.211 23.78 44.373 23.78 32.256 0 55.012-26.965 55.012-66.617 0-46.535-29.070-69.803-58.197-69.803-19.001 0-33.849 7.396-43.349 24.292h-1.081l-1.024-21.675h-20.651v0.569zM2108.075 767.943c0-3.129 0.569-5.803 1.081-8.42 4.207-15.93 18.468-27.491 35.437-27.534h0.005c24.86 0 39.652 20.139 39.652 50.233 0 25.941-13.255 48.185-38.628 48.185-17.444-0.432-31.93-12.59-35.9-28.868l-0.053-0.259c-0.569-2.617-1.593-5.803-1.593-9.5v-23.836zM2244.096 846.222l28.558-76.686c3.186-8.42 6.315-19.001 8.476-26.453h0.512c2.617 7.964 5.291 18.034 8.476 27.022l25.828 76.117h24.86l-35.442-92.558c-16.896-44.373-28.558-67.698-44.373-81.408-11.662-10.069-23.324-14.279-29.127-15.36l-5.803 20.082c5.803 2.105 13.71 5.86 20.594 11.662 6.372 5.291 14.279 14.222 20.139 26.453 1.024 2.617 2.105 4.21 2.105 5.803-0.226 2.329-0.791 4.469-1.646 6.454l0.053-0.139-48.071 120.149h24.86v-1.138z" />
<glyph unicode="&#xe933;" glyph-name="time" d="M684.928 828.459c52.568-22.94 97.472-53.82 135.436-91.66l-0.012 0.012c38.613-38.613 69.163-83.755 91.648-135.424s33.749-106.965 33.749-165.845-11.264-114.176-33.749-165.845-53.077-96.811-91.648-135.424c-38.613-38.613-83.755-69.163-135.424-91.648s-106.965-33.749-165.845-33.749-114.176 11.264-165.845 33.749-96.811 53.035-135.424 91.648c-38.613 38.613-69.163 83.755-91.648 135.424s-33.749 106.923-33.749 165.845c0 58.88 11.264 114.176 33.749 165.845s53.035 96.811 91.648 135.424c38.656 38.613 83.797 69.163 135.467 91.648s106.923 33.749 165.845 33.749c58.88 0 114.133-11.221 165.803-33.749zM545.792 63.872c93.087 6.669 175.739 46.632 237.103 107.908l-0.004-0.004c61.253 61.371 101.211 144.016 107.834 235.896l0.070 1.203h-105.003c-0.070-0.001-0.153-0.001-0.237-0.001-7.274 0-13.836 3.044-18.484 7.927l-0.010 0.011c-4.894 4.671-7.937 11.245-7.937 18.53 0 0.070 0 0.141 0.001 0.211v-0.011c0 0.060-0.001 0.13-0.001 0.2 0 7.285 3.043 13.859 7.927 18.521l0.010 0.009c4.671 4.894 11.245 7.937 18.53 7.937 0.070 0 0.141 0 0.211-0.001h104.992c-6.75 93.071-46.695 175.7-107.914 237.108l0.010-0.010c-61.399 61.209-144.028 101.154-235.885 107.833l-1.214 0.071v-105.003c0.001-0.070 0.001-0.153 0.001-0.237 0-7.274-3.044-13.836-7.927-18.484l-0.011-0.010c-4.678-4.894-11.258-7.937-18.548-7.937-0.064 0-0.128 0-0.192 0.001h0.010c-0.070-0.001-0.153-0.001-0.237-0.001-7.274 0-13.836 3.044-18.484 7.927l-0.010 0.011c-4.894 4.671-7.937 11.245-7.937 18.53 0 0.070 0 0.141 0.001 0.211v-0.011 105.003c-93.082-6.693-175.727-46.651-237.104-107.91l0.006 0.006c-61.272-61.36-101.235-144.011-107.835-235.9l-0.069-1.198h105.003c0.060 0 0.13 0.001 0.2 0.001 7.285 0 13.859-3.043 18.521-7.927l0.009-0.010c4.894-4.678 7.937-11.258 7.937-18.548 0-0.064 0-0.128-0.001-0.192v0.010c0.001-0.070 0.001-0.153 0.001-0.237 0-7.274-3.044-13.836-7.927-18.484l-0.011-0.010c-4.678-4.894-11.258-7.937-18.548-7.937-0.064 0-0.128 0-0.192 0.001h-104.993c3.307-47.781 15.247-92.014 34.274-132.24l-0.951 2.235c18.859-40.576 43.733-76.245 74.581-107.093s66.517-55.723 107.093-74.581c40.533-18.901 83.883-29.995 130.005-33.323v105.003c0 0.060-0.001 0.13-0.001 0.2 0 7.285 3.043 13.859 7.927 18.521l0.010 0.009c4.671 4.894 11.245 7.937 18.53 7.937 0.070 0 0.141 0 0.211-0.001h-0.011c0.060 0 0.13 0.001 0.2 0.001 7.285 0 13.859-3.043 18.521-7.927l0.009-0.010c4.894-4.678 7.937-11.258 7.937-18.548 0-0.064 0-0.128-0.001-0.192v0.010-105.003zM697.856 454.315c4.894-4.678 7.937-11.258 7.937-18.548 0-0.064 0-0.128-0.001-0.192v0.010c0.001-0.070 0.001-0.153 0.001-0.237 0-7.274-3.044-13.836-7.927-18.484l-0.011-0.010c-4.678-4.894-11.258-7.937-18.548-7.937-0.064 0-0.128 0-0.192 0.001h-159.99c-0.131-0.002-0.286-0.004-0.441-0.004-4.258 0-8.266 1.076-11.765 2.97l0.131-0.065c-3.784 2.049-6.973 4.707-9.555 7.879l-0.045 0.057-160 213.333c-3.363 4.085-5.402 9.37-5.402 15.132 0 1.559 0.149 3.084 0.435 4.56l-0.024-0.15c0.993 7.444 5.011 13.793 10.757 17.866l0.081 0.054c4.134 3.351 9.458 5.38 15.256 5.38 1.53 0 3.027-0.141 4.478-0.411l-0.15 0.023c7.426-1.010 13.755-5.024 17.823-10.757l0.054-0.081 151.68-202.496h146.688c7.211 0 13.44-2.645 18.731-7.893z" />
<glyph unicode="&#xe934;" glyph-name="twitter" d="M918.74 656.568c0.65-9.096 0.65-18.194 0.65-27.29 0-277.44-211.166-597.116-597.116-597.116-118.904 0-229.36 34.438-322.274 94.212 16.894-1.948 33.136-2.598 50.68-2.598 98.11 0 188.426 33.136 260.548 89.664-92.264 1.95-169.584 62.376-196.224 145.544 12.996-1.948 25.99-3.248 39.636-3.248 18.842 0 37.686 2.6 55.228 7.146-96.162 19.494-168.286 103.96-168.286 205.97v2.598c27.938-15.594 60.428-25.34 94.862-26.638-56.528 37.686-93.562 102.010-93.562 174.782 0 38.984 10.394 74.72 28.588 105.908 103.31-127.35 258.6-210.516 432.73-219.614-3.248 15.594-5.198 31.836-5.198 48.080 0 115.656 93.564 209.868 209.868 209.868 60.426 0 115.004-25.34 153.34-66.274 47.43 9.096 92.912 26.64 133.198 50.68-15.596-48.732-48.732-89.666-92.264-115.654 42.234 4.546 83.168 16.244 120.852 32.486-28.584-41.582-64.322-78.616-105.256-108.506z" />
<glyph unicode="&#xe935;" glyph-name="uparrow" d="M503.083 42.453c-0.070-0.001-0.153-0.001-0.237-0.001-7.274 0-13.836 3.044-18.484 7.927l-0.010 0.011c-4.894 4.678-7.937 11.258-7.937 18.548 0 0.064 0 0.128 0.001 0.192v-0.010 682.539l-194.176-194.987c-4.947-4.677-11.641-7.552-19.006-7.552-0.053 0-0.106 0-0.16 0h0.008c-0.043 0-0.095 0-0.146 0-7.359 0-14.051 2.858-19.026 7.524l0.015-0.014c-4.652 4.96-7.51 11.652-7.51 19.011 0 0.051 0 0.103 0 0.154v-0.008c0 7.211 2.517 13.611 7.509 19.157l240 240c1.094 0.757 2.583 1.716 4.097 2.637l0.468 0.265c1.365 0.853 2.901 1.792 4.565 2.901 2.979 1.033 6.412 1.629 9.984 1.629s7.005-0.597 10.205-1.695l-0.221 0.066c1.664-1.109 3.2-2.091 4.565-2.901 1.365-0.853 2.901-1.792 4.565-2.901l240-240c4.992-5.547 7.509-11.947 7.509-19.157 0-0.043 0-0.095 0-0.146 0-7.359-2.858-14.051-7.524-19.026l0.014 0.015c-2.642-2.136-5.667-3.955-8.927-5.327l-0.246-0.092c-2.945-1.291-6.377-2.042-9.984-2.042s-7.039 0.751-10.148 2.106l0.164-0.064c-3.506 1.463-6.532 3.283-9.244 5.474l0.071-0.056-194.176 194.987v-682.496c0-0.060 0.001-0.13 0.001-0.2 0-7.285-3.043-13.859-7.927-18.521l-0.010-0.009c-4.603-4.892-11.12-7.938-18.348-7.938-0.105 0-0.209 0.001-0.314 0.002h0.016z" />
<glyph unicode="&#xe936;" horiz-adv-x="3157" d="M1163.093-41.131l155.307 873.131h242.517l-150.357-873.131h-247.467zM2288.469 822.272c-48.469 19.371-126.123 38.827-223.147 38.827-242.517 0-417.109-121.259-417.109-295.936 0-130.987 121.173-198.827 218.283-242.517 97.024-43.605 126.123-72.789 126.123-111.531 0-58.197-77.653-87.296-145.579-87.296-97.024 0-150.357 14.507-232.789 48.469l-33.963 14.507-33.963-198.827c58.197-24.235 164.949-48.469 276.48-48.469 257.109 0 426.837 121.173 426.837 305.493 0 101.888-63.061 179.541-208.555 242.603-87.296 43.605-140.629 67.925-140.629 111.531 0 38.827 43.605 77.653 140.629 77.653 82.432 0 140.629-14.507 184.32-33.963l24.235-9.728 38.827 189.184zM2705.579 832c-58.197 0-101.888-4.864-126.123-63.147l-363.776-809.984h261.973l48.469 145.493h310.443l29.013-145.493h232.96l-203.861 873.131h-189.184zM2593.963 249.856c14.592 43.691 97.024 257.109 97.024 257.109s19.456 53.333 33.963 87.296l14.507-82.432s48.64-218.283 58.283-266.752h-203.776v4.779zM716.971 220.757l-24.235 126.123c-43.691 145.579-184.32 305.579-339.627 383.147l218.368-776.021h261.888l392.875 873.131h-261.973l-247.211-606.379z" />
<glyph unicode="&#xe937;" horiz-adv-x="3157" d="M690.176 434.005c0.683-1.792 1.28-3.669 2.475-5.461l-9.131 37.035-78.165 370.347c-14.507 58.368-58.197 72.875-111.616 72.875h-451.072l154.624-47.36c190.976-72.704 349.184-190.293 440.149-326.827 22.443-35.755 40.619-72.704 55.211-110.933l-2.475 10.325z" />
<glyph unicode="&#xe938;" glyph-name="wishlist" d="M916.736 678.443c-12.967 30.995-30.995 57.438-53.315 79.555l-0.018 0.018c-23.893 23.893-50.816 41.771-80.853 53.76-27.307 11.357-59.027 17.953-92.288 17.953s-64.981-6.596-93.923-18.551l1.635 0.598c-30.293-11.947-57.387-29.867-81.237-53.76-1.109-1.664-2.389-3.2-3.755-4.565l-4.565-4.565-4.565 4.565c-1.366 1.363-2.602 2.856-3.687 4.459l-0.068 0.106c-23.893 23.893-50.944 41.771-81.237 53.76s-61.141 17.92-92.501 17.92-62.080-5.973-92.075-17.92-56.96-29.867-80.853-53.76c-23.339-23.296-41.131-49.835-53.333-79.573s-18.347-60.971-18.347-93.739 6.144-64.043 18.347-93.739 29.995-56.235 53.333-79.573l335.829-335.829c0.128-0.128 0.299-0.171 0.469-0.256l18.731-18.603 18.731 18.645c0.128 0.085 0.299 0.128 0.427 0.256l335.829 335.829c23.339 23.339 41.131 49.877 53.333 79.573s18.347 60.971 18.347 93.739-6.187 64-18.389 93.696zM867.157 511.36c-10.084-23.993-24.022-44.471-41.254-61.648l-317.488-317.488-317.483 317.483c-17.792 17.792-31.531 38.315-41.259 61.653s-14.592 47.787-14.592 73.344 4.864 50.005 14.592 73.344 23.467 44.16 41.259 62.507c18.859 18.347 40.107 32.213 63.744 41.685s47.616 14.165 72.064 14.165c59.442-0.084 112.536-27.192 147.666-69.693l0.26-0.323c4.181-4.992 7.936-10.283 11.264-15.829 4.992-7.211 12.501-10.837 22.485-10.837s17.493 3.627 22.485 10.837c3.328 5.547 7.083 10.837 11.264 15.829s8.448 9.728 12.928 14.165c34.618 34.428 82.308 55.743 134.976 55.851h0.021c24.448 0 48.469-4.693 72.064-14.165s44.885-23.339 63.744-41.685c17.792-18.347 31.531-39.168 41.259-62.507s14.592-47.787 14.592-73.344-4.864-50.005-14.592-73.344z" />
<glyph unicode="&#xe939;" glyph-name="youTube" horiz-adv-x="1152" d="M1099.31 711.834c-12.562 47.3-49.574 84.552-96.568 97.194-85.18 22.972-426.742 22.972-426.742 22.972s-341.56 0-426.742-22.972c-46.994-12.644-84.006-49.894-96.568-97.194-22.824-85.734-22.824-264.61-22.824-264.61s0-178.876 22.824-264.61c12.562-47.3 49.574-83 96.568-95.642 85.182-22.972 426.742-22.972 426.742-22.972s341.56 0 426.742 22.972c46.994 12.642 84.006 48.342 96.568 95.642 22.824 85.734 22.824 264.61 22.824 264.61s0 178.876-22.824 264.61zM464.29 284.818v324.812l285.478-162.41-285.478-162.402z" />
<glyph unicode="&#xe93a;" glyph-name="arrow" d="M502.741 358.912l-160 160c-4.652 4.96-7.51 11.652-7.51 19.011 0 0.051 0 0.103 0 0.154v-0.008c0 7.211 2.517 13.611 7.509 19.157 4.948 4.652 11.629 7.51 18.978 7.51 0.063 0 0.126 0 0.189-0.001h-0.010c7.211 0 13.568-2.517 19.157-7.509l140.843-141.653 140.843 141.653c4.948 4.652 11.629 7.51 18.978 7.51 0.063 0 0.126 0 0.189-0.001h-0.010c7.211 0 13.568-2.517 19.157-7.509 4.992-5.547 7.509-11.947 7.509-19.157 0-0.043 0-0.095 0-0.146 0-7.359-2.858-14.051-7.524-19.026l0.014 0.015-160-160c-2.642-2.136-5.667-3.955-8.927-5.327l-0.246-0.092c-2.945-1.291-6.377-2.042-9.984-2.042s-7.039 0.751-10.148 2.106l0.164-0.064c-3.51 1.44-6.537 3.262-9.237 5.469l0.064-0.051z" />
<glyph unicode="&#xe93b;" glyph-name="right-arrow" d="M286.208 67.541c0 7.211 2.517 13.611 7.509 19.157l354.987 354.176-354.987 354.176c-4.652 4.96-7.51 11.652-7.51 19.011 0 0.051 0 0.103 0 0.154v-0.008c0 7.211 2.517 13.611 7.509 19.157 4.948 4.652 11.629 7.51 18.978 7.51 0.063 0 0.126 0 0.189-0.001h-0.010c7.211 0 13.568-2.517 19.157-7.509l373.333-373.333c4.992-5.547 7.509-11.947 7.509-19.157 0-0.043 0-0.095 0-0.146 0-7.359-2.858-14.051-7.524-19.026l0.014 0.015-373.333-373.333c-2.646-2.117-5.669-3.935-8.92-5.323l-0.253-0.096c-3.328-1.365-6.656-2.091-9.984-2.091s-6.656 0.725-9.984 2.091c-3.504 1.483-6.527 3.302-9.251 5.479l0.078-0.060c-4.652 4.96-7.51 11.652-7.51 19.011 0 0.051 0 0.103 0 0.154v-0.008z" />
<glyph unicode="&#xe941;" glyph-name="watch" d="M363.861 224.512c-47.232 25.259-88.491 53.333-123.733 84.181-35.285 30.848-63.616 59.435-84.992 85.845-21.376 26.368-32.896 40.96-34.603 43.733-3.116 4.051-4.993 9.195-4.993 14.777 0 0.085 0 0.17 0.001 0.254v-0.013c0 5.547 1.664 10.539 4.992 15.019 1.664 2.731 13.056 17.323 34.176 43.733 21.12 26.368 49.451 54.997 84.992 85.845s76.928 58.88 124.16 84.181c43.462 23.883 95.244 37.934 150.308 37.934 0.482 0 0.964-0.001 1.446-0.003h-0.074c53.888 0 104.448-12.672 151.68-37.931 47.189-25.301 88.448-53.333 123.733-84.181s63.616-59.477 84.992-85.845c21.376-26.411 32.896-41.003 34.603-43.733 3.116-4.061 4.993-9.214 4.993-14.806 0-0.075 0-0.15-0.001-0.225v0.011c-0.027-5.925-1.891-11.41-5.052-15.919l0.060 0.090c-1.664-2.261-13.227-16.683-34.603-43.349s-49.877-55.296-85.419-85.845c-35.541-30.592-76.971-58.496-124.16-83.755-43.29-23.881-94.893-37.932-149.777-37.932-0.369 0-0.737 0.001-1.106 0.002h0.057c-0.436-0.002-0.952-0.003-1.468-0.003-55.032 0-106.781 14.051-151.858 38.761l1.646-0.826zM400.939 640.341c-36.395-17.493-69.589-37.931-99.584-61.269s-55.979-46.976-77.909-70.827c-21.973-23.936-37.931-42.24-47.915-54.997 9.984-12.8 25.941-31.104 47.915-54.997 21.931-23.936 47.915-47.488 77.909-70.827s63.317-43.733 100.011-61.269 74.709-26.24 114.176-26.24c39.424 0 77.355 8.747 113.749 26.24s69.717 37.931 100.011 61.269c30.251 23.339 56.235 46.933 77.909 70.827s37.76 42.197 48.341 54.997c-17.57 20.805-33.365 38.708-49.508 56.285l1.167-1.287c-21.675 23.893-47.488 47.488-77.483 70.827s-63.317 43.733-100.011 61.269-74.709 26.24-114.176 26.24c-39.979 0-78.208-8.747-114.603-26.24zM402.645 340.352c-31.403 31.36-47.104 68.992-47.104 112.896 0 43.861 15.701 81.493 47.104 112.896 31.36 31.36 69.035 47.104 112.896 47.104s81.536-15.701 112.896-47.104c31.36-31.403 47.104-69.035 47.104-112.896 0-43.904-15.701-81.536-47.104-112.896-31.403-31.403-69.035-47.104-112.896-47.104-43.904 0-81.536 15.659-112.896 47.104zM440.107 528.683c-19.28-18.712-31.245-44.869-31.245-73.82 0-0.568 0.005-1.135 0.014-1.7l-0.001 0.085c0-29.44 10.411-54.571 31.232-75.435s45.952-31.232 75.435-31.232c29.44 0 54.571 10.411 75.435 31.232s31.232 45.952 31.232 75.435c0 29.397-10.411 54.571-31.232 75.435s-45.995 31.232-75.435 31.232-54.571-10.411-75.435-31.232z" />
<glyph unicode="&#xe942;" glyph-name="menu-icon" d="M146.688 726.229h741.333v-53.333h-741.333zM146.688 486.229h741.333v-53.333h-741.333zM146.688 246.229h741.333v-53.333h-741.333z" />
<glyph unicode="&#xe943;" glyph-name="leftarrow" d="M714.069 814.208c0-0.043 0-0.095 0-0.146 0-7.359-2.858-14.051-7.524-19.026l0.014 0.015-354.987-354.176 354.987-354.176c4.992-5.547 7.509-11.947 7.509-19.157s-2.517-13.611-7.509-19.157c-2.646-2.117-5.669-3.935-8.92-5.323l-0.253-0.096c-3.328-1.365-6.656-2.091-9.984-2.091s-6.656 0.725-9.984 2.091c-3.503 1.495-6.525 3.312-9.255 5.481l0.081-0.062-373.333 373.333c-4.652 4.96-7.51 11.652-7.51 19.011 0 0.051 0 0.103 0 0.154v-0.008c0 7.211 2.517 13.611 7.509 19.157l373.333 373.333c4.96 4.652 11.652 7.51 19.011 7.51 0.051 0 0.103 0 0.154 0h-0.008c7.211 0 13.611-2.517 19.157-7.509 4.992-5.547 7.509-11.947 7.509-19.157z" />
<glyph unicode="&#xe944;" glyph-name="filter" d="M823.125 880.171c7.211 0 13.44-2.688 18.731-7.936 4.894-4.678 7.937-11.258 7.937-18.548 0-0.064 0-0.128-0.001-0.192v0.010-106.667c0-0.025 0-0.055 0-0.085 0-3.413-0.61-6.684-1.727-9.709l0.063 0.194c-1.115-3.103-2.819-5.755-4.993-7.937l0.001 0.001-233.344-259.157v-283.349c0-0.025 0-0.054 0-0.083 0-4.572-1.236-8.856-3.392-12.535l0.063 0.117c-2.204-3.908-4.981-7.215-8.262-9.937l-0.058-0.047-160-106.667c-2.219-1.109-4.565-2.091-7.083-2.901-2.322-0.762-4.995-1.201-7.77-1.201-4.657 0-9.025 1.237-12.793 3.401l0.125-0.066c-4.437 2.219-7.936 5.419-10.411 9.6s-3.755 8.747-3.755 13.739v389.973l-233.344 259.157c-2.183 2.175-3.888 4.829-4.946 7.79l-0.046 0.146c-1.054 2.81-1.664 6.058-1.664 9.447 0 0.039 0 0.077 0 0.116v-0.006 106.667c0 0.060-0.001 0.13-0.001 0.2 0 7.285 3.043 13.859 7.927 18.521l0.010 0.009c4.698 4.895 11.295 7.936 18.603 7.936 0.045 0 0.090 0 0.135 0h639.993zM796.459 756.864v69.973h-586.667v-70.016l233.344-259.157c2.164-2.187 3.866-4.836 4.944-7.786l0.048-0.15c1.054-2.822 1.664-6.082 1.664-9.485 0-0.040 0-0.081 0-0.121v0.006-349.995l106.667 70.827v279.168c0 3.328 0.555 6.485 1.664 9.6 1.137 3.096 2.837 5.743 4.995 7.939l-0.003-0.003 233.344 259.2z" />
<glyph unicode="&#xe945;" glyph-name="tick" d="M413.995 299.136l-106.667 106.667c-4.652 4.96-7.51 11.652-7.51 19.011 0 0.051 0 0.103 0 0.154v-0.008c0 7.211 2.517 13.611 7.509 19.157 5.547 4.992 11.947 7.509 19.157 7.509s13.611-2.517 19.157-7.509l87.509-88.32 247.509 248.32c5.547 4.992 11.947 7.509 19.157 7.509s13.611-2.517 19.157-7.509c4.992-5.547 7.509-11.947 7.509-19.157 0-0.043 0-0.095 0-0.146 0-7.359-2.858-14.051-7.524-19.026l0.014 0.015-266.667-266.667c-2.642-2.136-5.667-3.955-8.927-5.327l-0.246-0.092c-2.945-1.291-6.377-2.042-9.984-2.042s-7.039 0.751-10.148 2.106l0.164-0.064c-3.503 1.495-6.525 3.312-9.255 5.481l0.081-0.062z" />
<glyph unicode="&#xe946;" d="M985.685 708.472l-473.959-474.002-473.959 474.002c-8.842 8.542-22.935 8.295-31.476-0.547-8.331-8.627-8.331-22.302 0-30.927l489.719-489.719c8.692-8.69 22.782-8.69 31.476 0l489.719 489.719c8.842 8.542 9.086 22.632 0.547 31.476-8.542 8.842-22.632 9.086-31.476 0.547-0.186-0.179-0.367-0.361-0.547-0.547l-0.044-0.002z" />
<glyph unicode="&#xe947;" d="M511.727 180.733c-5.908-0.010-11.578 2.327-15.76 6.501l-489.719 489.719c-8.542 8.842-8.295 22.935 0.547 31.476 8.627 8.331 22.302 8.331 30.927 0l474.002-473.959 473.959 474.002c8.542 8.842 22.632 9.086 31.476 0.547 8.842-8.542 9.086-22.632 0.547-31.476-0.179-0.186-0.361-0.367-0.547-0.547l-489.716-489.719c-4.165-4.178-9.819-6.53-15.716-6.544z" />
<glyph unicode="&#xe948;" d="M1017.503 218.815l-489.883 489.883c-8.695 8.693-22.79 8.693-31.487 0l-489.883-489.883c-8.544-8.845-8.3-22.942 0.547-31.487 8.63-8.336 22.31-8.336 30.94 0l474.118 474.118 474.118-474.162c8.845-8.544 22.942-8.3 31.487 0.545 8.336 8.63 8.336 22.312 0 30.94l0.044 0.046z" />
<glyph unicode="&#xe949;" d="M1001.738 180.782c-5.91-0.010-11.582 2.328-15.765 6.503l-474.118 474.162-474.118-474.162c-8.845-8.544-22.942-8.3-31.487 0.547-8.336 8.63-8.336 22.31 0 30.94l489.883 489.883c8.695 8.693 22.79 8.693 31.487 0l489.883-489.883c8.682-8.709 8.659-22.809-0.050-31.491-4.173-4.161-9.824-6.497-15.715-6.499z" />
<glyph unicode="&#xe94e;" horiz-adv-x="1953" d="M176.128 606.72h67.584l-33.792 87.040z" />
<glyph unicode="&#xe94f;" horiz-adv-x="1953" d="M1674.24 773.632v-36.864l-18.432 36.864h-144.384v-36.864l-18.432 36.864h-196.608c-33.792 0-61.44-6.144-86.016-18.432v18.432h-138.24v-18.432c-15.36 12.288-33.792 18.432-58.368 18.432h-496.64l-33.792-76.8-33.792 76.8h-156.672v-36.864l-18.432 36.864h-132.096l-61.44-144.384-70.656-160.768h156.672l18.432 49.152h43.008l18.432-49.152h178.176v36.864l15.36-36.864h89.088l15.36 36.864v-36.864h428.032v79.872h6.144c6.144 0 6.144 0 6.144-9.216v-67.584h221.184v18.432c18.432-9.216 46.080-18.432 82.944-18.432h92.16l18.432 49.152h43.008l18.432-49.152h178.176v46.080l27.648-46.080h145.408v302.080h-138.24zM634.88 514.56h-52.224v169.984l-73.728-168.96h-46.080l-73.728 168.96v-168.96h-105.472l-21.504 45.056h-104.448l-18.432-49.152h-58.368l92.16 218.112h76.8l86.016-205.824v206.848h82.944l67.584-147.456 61.44 147.456h87.040v-216.064zM843.776 684.544h-119.808v-39.936h116.736v-43.008h-116.736v-43.008h119.808v-46.080h-172.032v218.112h172.032v-46.080zM1074.176 594.432c6.144-12.288 9.216-21.504 9.216-39.936v-43.008h-52.224v27.648c0 12.288 0 30.72-9.216 43.008-9.216 9.216-18.432 9.216-36.864 9.216h-55.296v-79.872h-52.224v219.136h116.736c27.648 0 46.080 0 61.44-9.216s24.576-24.576 24.576-49.152c0-33.792-21.504-52.224-36.864-58.368 15.36-4.096 24.576-13.312 30.72-19.456zM1166.336 514.56h-52.224v219.136h52.224v-219.136zM1772.544 514.56h-73.728l-98.304 162.816v-162.816h-105.472l-18.432 46.080h-107.52l-18.432-49.152h-58.368c-24.576 0-55.296 6.144-73.728 24.576s-27.648 43.008-27.648 82.944c0 30.72 6.144 61.44 27.648 86.016 15.36 18.432 43.008 24.576 76.8 24.576h49.152v-46.080h-49.152c-18.432 0-27.648-3.072-39.936-12.288-9.216-9.216-15.36-27.648-15.36-49.152 0-24.576 3.072-39.936 15.36-52.224 9.216-9.216 21.504-12.288 36.864-12.288h21.504l70.656 168.96h76.8l86.016-205.824v206.848h76.8l89.088-150.528v150.528h52.224v-211.968l7.168-1.024z" />
<glyph unicode="&#xe950;" horiz-adv-x="1953" d="M1387.52 606.72h70.656l-33.792 87.040zM865.28 164.352v175.104l-79.872-86.016zM535.552 317.952v-39.936h114.688v-43.008h-114.688v-46.080h126.976l58.368 64.512-55.296 64.512z" />
<glyph unicode="&#xe951;" horiz-adv-x="1953" d="M982.016 317.952h-64.512v-55.296h67.584c18.432 0 30.72 9.216 30.72 27.648-3.072 18.432-15.36 27.648-33.792 27.648z" />
<glyph unicode="&#xe952;" horiz-adv-x="1953" d="M1932.288 265.728v138.24h-129.024c-27.648 0-49.152-6.144-64.512-18.432v18.432h-141.312c-21.504 0-49.152-6.144-61.44-18.432v18.432h-248.832v-18.432c-18.432 15.36-52.224 18.432-67.584 18.432h-165.888v-18.432c-15.36 15.36-52.224 18.432-70.656 18.432h-184.32l-43.008-46.080-39.936 46.080h-276.48v-301.056h270.336l43.008 46.080 39.936-46.080h165.888v70.656h21.504c21.504 0 49.152 0 70.656 9.216v-82.944h137.216v79.872h6.144c9.216 0 9.216 0 9.216-9.216v-70.656h417.792c27.648 0 55.296 6.144 70.656 18.432v-18.432h132.096c27.648 0 55.296 3.072 73.728 15.36 30.72 18.432 49.152 52.224 49.152 92.16 1.024 21.504-5.12 43.008-14.336 58.368zM978.944 216.576h-61.44v-73.728h-98.304l-61.44 70.656-64.512-70.656h-203.776v218.112h206.848l61.44-70.656 64.512 70.656h162.816c39.936 0 86.016-12.288 86.016-70.656-3.072-61.44-46.080-73.728-92.16-73.728zM1286.144 228.864c6.144-9.216 9.216-21.504 9.216-39.936v-43.008h-52.224v27.648c0 12.288 0 33.792-9.216 43.008-6.144 9.216-18.432 9.216-36.864 9.216h-55.296v-79.872h-52.224v218.112h116.736c24.576 0 46.080 0 61.44-9.216s27.648-24.576 27.648-49.152c0-33.792-21.504-52.224-36.864-58.368 15.36-6.144 24.576-12.288 27.648-18.432zM1498.112 317.952h-119.808v-39.936h116.736v-43.008h-116.736v-43.008h119.808v-46.080h-172.032v218.112h172.032v-46.080zM1627.136 145.92h-98.304v46.080h98.304c9.216 0 15.36 0 21.504 6.144 3.072 3.072 6.144 9.216 6.144 15.36s-3.072 12.288-6.144 15.36c-3.072 3.072-9.216 6.144-18.432 6.144-49.152 3.072-107.52 0-107.52 67.584 0 30.72 18.432 64.512 73.728 64.512h101.376v-52.224h-95.232c-9.216 0-15.36 0-21.504-3.072s-6.144-9.216-6.144-15.36c0-9.216 6.144-12.288 12.288-15.36s12.288-3.072 18.432-3.072h27.648c27.648 0 46.080-6.144 58.368-18.432 9.216-9.216 15.36-24.576 15.36-46.080 1.024-46.080-26.624-67.584-79.872-67.584zM1892.352 167.424c-12.288-12.288-33.792-21.504-64.512-21.504h-98.304v46.080h98.304c9.216 0 15.36 0 21.504 6.144 3.072 3.072 6.144 9.216 6.144 15.36s-3.072 12.288-6.144 15.36-9.216 6.144-18.432 6.144c-49.152 3.072-107.52 0-107.52 67.584 0 30.72 18.432 64.512 73.728 64.512h101.376v-52.224h-92.16c-9.216 0-15.36 0-21.504-3.072s-6.144-9.216-6.144-15.36c0-9.216 3.072-12.288 12.288-15.36 6.144-3.072 12.288-3.072 18.432-3.072h27.648c27.648 0 46.080-6.144 58.368-18.432 3.072 0 3.072-3.072 3.072-3.072 9.216-12.288 12.288-27.648 12.288-43.008 0-18.432-6.144-33.792-18.432-46.080z" />
<glyph unicode="&#xe953;" horiz-adv-x="1953" d="M865.28 164.352v175.104l-79.872-86.016z" />
<glyph unicode="&#xe954;" horiz-adv-x="1953" d="M1668.096 480.768l6.144-9.216h3.072z" />
<glyph unicode="&#xe955;" horiz-adv-x="1953" d="M1206.272 317.952h-64.512v-55.296h67.584c18.432 0 30.72 9.216 30.72 27.648-3.072 18.432-15.36 27.648-33.792 27.648z" />
<glyph unicode="&#xe956;" horiz-adv-x="1953" d="M994.304 689.664h-64.512v-55.296h67.584c18.432 0 30.72 9.216 30.72 27.648-3.072 18.432-15.36 27.648-33.792 27.648z" />
<glyph unicode="&#xe95d;" horiz-adv-x="1185" d="M696.32 435.712c0-190.464-153.6-346.112-346.112-346.112-190.464 0-346.112 155.648-346.112 346.112s153.6 346.112 344.064 346.112c194.56 0 348.16-155.648 348.16-346.112z" />
<glyph unicode="&#xe95e;" horiz-adv-x="1185" d="M1163.264 437.76c0-191.488-154.624-348.16-348.16-348.16-191.488 0-348.16 156.672-348.16 348.16s154.624 348.16 346.112 348.16c195.584 0 350.208-156.672 350.208-348.16z" />
<glyph unicode="&#xe95f;" horiz-adv-x="1185" d="M697.344 435.712c0 25.6-4.096 50.176-7.168 73.728h-214.016c2.048 13.312 5.12 23.552 9.216 36.864h191.488c-4.096 13.312-9.216 25.6-14.336 36.864h-161.792c5.12 13.312 13.312 23.552 20.48 36.864h123.904c-7.168 13.312-16.384 25.6-27.648 36.864h-68.608c11.264 13.312 22.528 23.552 34.816 34.816-59.392 55.296-139.264 88.064-226.304 90.112v-692.224c88.064 1.024 166.912 35.84 228.352 90.112 13.312 11.264 23.552 23.552 34.816 36.864h-71.68c-9.216 11.264-18.432 23.552-25.6 34.816h123.904c7.168 11.264 14.336 23.552 20.48 36.864h-165.888c-5.12 11.264-11.264 23.552-14.336 36.864h191.488c11.264 34.816 18.432 71.68 18.432 110.592z" />
<glyph unicode="&#xe960;" horiz-adv-x="1185" d="M474.112 349.696l5.12 31.744c-2.048 0-5.12-2.048-9.216-2.048-13.312 0-14.336 7.168-13.312 11.264l11.264 64.512h20.48l5.12 34.816h-18.432l4.096 22.528h-36.864s-22.528-121.856-22.528-136.192c0-22.528 13.312-31.744 29.696-31.744 12.288-1.024 21.504 3.072 24.576 5.12zM487.424 408.064c0-51.2 34.816-64.512 64.512-64.512 27.648 0 38.912 5.12 38.912 5.12l7.168 34.816s-20.48-9.216-38.912-9.216c-40.96 0-32.768 29.696-32.768 29.696h75.776s5.12 23.552 5.12 32.768c0 23.552-13.312 53.248-53.248 53.248-38.912 5.12-66.56-35.84-66.56-81.92zM551.936 461.312c20.48 0 16.384-23.552 16.384-25.6h-40.96c1.024 2.048 4.096 25.6 24.576 25.6zM785.408 349.696l7.168 40.96s-18.432-9.216-31.744-9.216c-25.6 0-36.864 20.48-36.864 41.984 0 44.032 22.528 68.608 48.128 68.608 18.432 0 32.768-11.264 32.768-11.264l5.12 38.912s-22.528 9.216-41.984 9.216c-41.984 0-84.992-36.864-84.992-106.496 0-46.080 22.528-77.824 66.56-77.824 16.384-1.024 35.84 5.12 35.84 5.12zM272.384 495.104c-25.6 0-44.032-7.168-44.032-7.168l-5.12-31.744s16.384 7.168 40.96 7.168c13.312 0 23.552-2.048 23.552-13.312 0-7.168-2.048-9.216-2.048-9.216h-16.384c-31.744 0-66.56-13.312-66.56-55.296 0-32.768 22.528-40.96 34.816-40.96 25.6 0 36.864 16.384 38.912 16.384l-2.048-14.336h32.768l14.336 101.376c0 45.056-36.864 47.104-49.152 47.104zM279.552 412.16c0-5.12-4.096-34.816-25.6-34.816-11.264 0-14.336 9.216-14.336 14.336 0 9.216 5.12 22.528 32.768 22.528 5.12-2.048 7.168-2.048 7.168-2.048zM356.352 345.6c9.216 0 55.296-2.048 55.296 48.128 0 46.080-44.032 36.864-44.032 55.296 0 9.216 7.168 13.312 20.48 13.312 5.12 0 25.6-2.048 25.6-2.048l5.12 32.768s-13.312 4.096-34.816 4.096c-27.648 0-55.296-11.264-55.296-48.128 0-41.984 46.080-38.912 46.080-55.296 0-11.264-13.312-13.312-22.528-13.312-16.384 0-32.768 5.12-32.768 5.12l-5.12-32.768c2.048-3.072 11.264-7.168 41.984-7.168zM1091.584 524.8l-7.168-50.176s-14.336 18.432-34.816 18.432c-32.768 0-62.464-40.96-62.464-88.064 0-29.696 14.336-60.416 46.080-60.416 22.528 0 34.816 14.336 34.816 14.336l-2.048-13.312h36.864l27.648 177.152-38.912 2.048zM1075.2 426.496c0-20.48-9.216-46.080-29.696-46.080-13.312 0-20.48 11.264-20.48 29.696 0 29.696 13.312 48.128 29.696 48.128 13.312 0 20.48-9.216 20.48-31.744zM70.656 347.648l22.528 133.12 4.096-133.12h25.6l48.128 133.12-20.48-133.12h38.912l29.696 177.152h-60.416l-36.864-108.544-2.048 108.544h-54.272l-29.696-177.152h34.816z" />
<glyph unicode="&#xe961;" horiz-adv-x="1185" d="M642.048 347.648c11.264 60.416 13.312 110.592 38.912 101.376 4.096 23.552 9.216 32.768 13.312 41.984h-7.168c-16.384 0-29.696-22.528-29.696-22.528l4.096 20.48h-34.816l-23.552-143.36h40.96v2.048zM870.4 495.104c-25.6 0-44.032-7.168-44.032-7.168l-5.12-31.744s16.384 7.168 40.96 7.168c13.312 0 23.552-2.048 23.552-13.312 0-7.168-2.048-9.216-2.048-9.216h-16.384c-31.744 0-66.56-13.312-66.56-55.296 0-32.768 22.528-40.96 34.816-40.96 25.6 0 36.864 16.384 38.912 16.384l-2.048-14.336h32.768l14.336 101.376c3.072 45.056-35.84 47.104-49.152 47.104zM879.616 412.16c0-5.12-4.096-34.816-25.6-34.816-11.264 0-14.336 9.216-14.336 14.336 0 9.216 5.12 22.528 32.768 22.528 5.12-2.048 5.12-2.048 7.168-2.048zM951.296 347.648c11.264 60.416 13.312 110.592 38.912 101.376 4.096 23.552 9.216 32.768 13.312 41.984h-7.168c-16.384 0-29.696-22.528-29.696-22.528l4.096 20.48h-34.816l-24.576-143.36h40.96v2.048z" />
<glyph unicode="&#xe969;" horiz-adv-x="2048" d="M1383.424 673.28h-157.696c-9.216 0-18.432-9.216-23.552-18.432l-64.512-408.576c0-9.216 5.12-14.336 14.336-14.336h83.968c9.216 0 14.336 5.12 14.336 14.336l18.432 115.712c0 9.216 9.216 18.432 23.552 18.432h51.2c106.496 0 166.912 51.2 181.248 153.6 9.216 41.984 0 78.848-18.432 102.4-29.696 22.528-71.68 36.864-122.88 36.864zM1402.88 519.68c-9.216-55.296-51.2-55.296-93.184-55.296h-27.648l18.432 106.496c0 5.12 5.12 9.216 14.336 9.216h9.216c27.648 0 55.296 0 69.632-18.432 9.216-5.12 9.216-18.432 9.216-41.984z" />
<glyph unicode="&#xe96a;" horiz-adv-x="2048" d="M245.76 673.28h-157.696c-9.216 0-18.432-9.216-23.552-18.432l-64.512-408.576c0-9.216 5.12-14.336 14.336-14.336h74.752c9.216 0 18.432 9.216 23.552 18.432l18.432 111.616c0 9.216 9.216 18.432 23.552 18.432h51.2c106.496 0 166.912 51.2 181.248 153.6 9.216 41.984 0 78.848-18.432 102.4-29.696 22.528-66.56 36.864-122.88 36.864zM265.216 519.68c-9.216-55.296-51.2-55.296-93.184-55.296h-23.552l18.432 106.496c0 5.12 5.12 9.216 14.336 9.216h9.216c27.648 0 55.296 0 69.632-18.432 5.12-5.12 9.216-18.432 5.12-41.984zM723.968 524.8h-74.752c-5.12 0-14.336-5.12-14.336-9.216l-5.12-23.552-5.12 9.216c-18.432 23.552-51.2 32.768-88.064 32.768-83.968 0-157.696-64.512-172.032-153.6-9.216-46.080 5.12-88.064 27.648-115.712 23.552-27.648 55.296-36.864 97.28-36.864 69.632 0 106.496 41.984 106.496 41.984l-2.048-23.552c0-9.216 5.12-14.336 14.336-14.336h69.632c9.216 0 18.432 9.216 23.552 18.432l41.984 260.096c-5.12 5.12-14.336 14.336-19.456 14.336zM617.472 376.32c-9.216-41.984-41.984-74.752-88.064-74.752-23.552 0-41.984 9.216-51.2 18.432-9.216 14.336-14.336 32.768-14.336 55.296 5.12 41.984 41.984 74.752 83.968 74.752 23.552 0 36.864-9.216 51.2-18.432 14.336-14.336 18.432-36.864 18.432-55.296z" />
<glyph unicode="&#xe96b;" horiz-adv-x="2048" d="M1857.536 524.8h-74.752c-5.12 0-14.336-5.12-14.336-9.216l-5.12-23.552-5.12 9.216c-18.432 23.552-51.2 32.768-88.064 32.768-83.968 0-157.696-64.512-172.032-153.6-9.216-46.080 5.12-88.064 27.648-115.712 23.552-27.648 55.296-36.864 97.28-36.864 69.632 0 106.496 41.984 106.496 41.984l-5.12-23.552c0-9.216 5.12-14.336 14.336-14.336h69.632c9.216 0 18.432 9.216 23.552 18.432l41.984 260.096c-2.048 5.12-7.168 14.336-16.384 14.336zM1751.040 376.32c-9.216-41.984-41.984-74.752-88.064-74.752-23.552 0-41.984 9.216-51.2 18.432-9.216 14.336-14.336 32.768-14.336 55.296 5.12 41.984 41.984 74.752 83.968 74.752 23.552 0 36.864-9.216 51.2-18.432 18.432-14.336 22.528-36.864 18.432-55.296z" />
<glyph unicode="&#xe96c;" horiz-adv-x="2048" d="M1128.448 524.8h-78.848c-9.216 0-14.336-5.12-18.432-9.216l-102.4-157.696-46.080 148.48c-5.12 9.216-9.216 14.336-23.552 14.336h-74.752c-9.216 0-14.336-9.216-14.336-18.432l83.968-245.76-78.848-111.616c-5.12-9.216 0-23.552 9.216-23.552h74.752c9.216 0 14.336 5.12 18.432 9.216l254.976 366.592c14.336 13.312 5.12 27.648-4.096 27.648z" />
<glyph unicode="&#xe96d;" horiz-adv-x="2048" d="M1945.6 658.944l-64.512-417.792c0-9.216 5.12-14.336 14.336-14.336h64.512c9.216 0 18.432 9.216 23.552 18.432l64.512 408.576c0 9.216-5.12 14.336-14.336 14.336h-74.752c-4.096 5.12-8.192 0-13.312-9.216z" />
<glyph unicode="&#xe973;" horiz-adv-x="1451" d="M532.48 231.936l71.68 406.528h113.664l-70.656-406.528zM1056.768 634.368c-22.528 9.216-58.368 18.432-103.424 18.432-112.64 0-194.56-56.32-194.56-138.24 0-61.44 56.32-92.16 101.376-112.64s58.368-33.792 58.368-52.224c0-26.624-35.84-40.96-67.584-40.96-45.056 0-69.632 7.168-108.544 22.528l-15.36 7.168-15.36-92.16c25.6-12.288 75.776-23.552 128-23.552 119.808 0 198.656 56.32 198.656 142.336 0 47.104-29.696 83.968-97.28 112.64-40.96 20.48-65.536 31.744-65.536 52.224 0 18.432 20.48 35.84 65.536 35.84 38.912 0 65.536-7.168 86.016-15.36l11.264-4.096 18.432 88.064zM1250.304 638.464c-26.624 0-47.104-2.048-58.368-29.696l-169.984-376.832h121.856l22.528 67.584h144.384l13.312-67.584h109.568l-95.232 406.528h-88.064zM1199.104 367.104c7.168 20.48 45.056 119.808 45.056 119.808l15.36 40.96 7.168-38.912s22.528-101.376 26.624-123.904h-95.232v2.048zM324.608 353.792l-11.264 58.368c-20.48 67.584-86.016 142.336-157.696 178.176l100.352-360.448h122.88l183.296 406.528h-122.88l-114.688-282.624z" />
<glyph unicode="&#xe974;" horiz-adv-x="1451" d="M312.32 455.168c0-1.024 1.024-2.048 1.024-2.048l-4.096 17.408-36.864 172.032c-7.168 26.624-26.624 33.792-52.224 33.792h-209.92l71.68-22.528c89.088-33.792 162.816-89.088 204.8-152.576 10.24-16.384 18.432-33.792 25.6-51.2v5.12z" />
<glyph unicode="&#xe975;" glyph-name="video" d="M518.315 98.987h-0.299c-40.254 0.478-77.597 1.388-114.824 2.751l8.030-0.233c-38.879 1.488-73.19 3.599-107.289 6.453l8.388-0.565c-38.178 2.943-72.030 7.18-105.38 12.888l6.65-0.941c-42.027 8.363-74.155 26.069-96.213 52.736-21.291 25.728-34.944 58.069-40.533 96.128-4.651 36.011-7.467 92.757-8.576 173.909 1.109 81.792 3.925 138.581 8.533 174.208 5.675 38.443 19.328 70.827 40.619 96.512 22.059 26.667 54.187 44.373 95.573 52.651 26.885 4.801 60.97 9.068 95.492 11.784l3.921 0.248c25.287 2.224 59.597 4.334 94.091 5.733l4.81 0.155c28.57 1.073 65.912 1.982 103.352 2.481l3.442 0.036c41.387-0.555 77.013-1.408 107.435-2.517 30.592-1.152 63.573-3.115 98.901-5.888 35.669-2.859 68.864-6.869 98.731-11.904 42.027-8.405 74.197-26.112 96.256-52.779 21.291-25.771 34.944-58.069 40.533-96.128 4.651-36.053 7.424-92.8 8.576-173.909-1.152-81.792-3.925-138.581-8.533-174.165-5.675-38.443-19.328-70.784-40.619-96.555-22.101-26.667-54.229-44.373-95.573-52.651-30.763-5.248-64-9.216-99.413-12.032-35.371-2.816-68.352-4.779-98.901-5.888-30.421-1.109-66.048-1.963-106.795-2.517h-0.384zM518.016 739.029c-39.723-0.555-74.923-1.408-105.045-2.517-29.995-1.109-62.293-3.029-96.939-5.76-34.304-2.731-66.133-6.571-94.592-11.392-30.293-6.101-52.736-18.048-67.925-36.437-15.744-19.029-25.941-43.605-30.293-73.045-4.267-32.939-6.997-89.515-8.064-167.765 1.067-77.568 3.84-134.187 8.149-167.467 4.309-29.056 14.464-53.632 30.208-72.661 15.232-18.432 37.632-30.336 68.565-36.523 28.032-4.736 59.861-8.619 93.952-11.307 34.645-2.773 66.944-4.693 96.896-5.76 30.037-1.109 65.152-1.963 105.387-2.517 40.192 0.555 75.349 1.365 105.387 2.517 29.995 1.067 62.293 2.987 96.896 5.76 36.516 2.792 68.95 6.848 100.897 12.33l-6.305-0.895c30.251 6.059 52.693 18.005 67.925 36.395 15.744 19.072 25.941 43.605 30.293 73.045 4.224 32.896 6.997 89.515 8.064 167.765-1.109 77.568-3.84 134.144-8.149 167.509-4.309 29.013-14.464 53.589-30.208 72.619-15.189 18.389-37.675 30.336-68.608 36.523-25.316 4.464-57.536 8.459-90.157 11.024l-3.795 0.24c-24.961 2.203-58.577 4.268-92.377 5.617l-4.519 0.143c-30.080 1.152-65.323 1.963-105.643 2.56zM388.224 241.024v402.901l335.744-201.429-335.744-201.472zM435.115 561.024v-237.141l197.589 118.571-197.589 118.571z" />
<glyph unicode="&#xe976;" glyph-name="zoom" d="M568.149 854.4c42.894-18.384 79.532-43.398 110.434-74.167l-0.012 0.012c30.761-30.887 55.776-67.525 73.286-108.157l0.868-2.264c17.131-39.245 27.099-84.971 27.099-133.026 0-0.693-0.002-1.386-0.006-2.078l0.001 0.107c0.002-0.452 0.003-0.986 0.003-1.521 0-43.361-8.254-84.794-23.278-122.813l0.789 2.265c-15.345-39.516-35.891-73.584-61.263-103.419l0.42 0.507 209.152-209.152c4.992-5.589 7.509-11.947 7.509-19.157s-2.517-13.611-7.509-19.157c-2.773-2.219-5.845-4.053-9.173-5.419s-6.656-2.091-9.984-2.091-6.656 0.725-9.984 2.091-6.357 3.2-9.173 5.419l-209.152 209.152c-29.995-25.6-64.299-45.824-102.912-60.843s-79.275-22.485-122.069-22.485c-0.65-0.004-1.417-0.007-2.186-0.007-47.982 0-93.635 9.969-135.002 27.948l2.19-0.848c-42.906 18.349-79.549 43.368-110.429 74.162l0.008-0.008c-30.781 30.876-55.799 67.518-73.29 108.162l-0.865 2.26c-17.131 39.223-27.099 84.926-27.099 132.957 0 0.717 0.002 1.434 0.007 2.15l-0.001-0.11c-0.004 0.586-0.006 1.278-0.006 1.971 0 48.055 9.968 93.781 27.949 135.225l-0.85-2.199c18.358 42.882 43.36 79.508 74.123 110.39l-0.011-0.011c30.89 30.757 67.527 55.771 108.156 73.286l2.265 0.869c42.24 18.048 87.211 27.093 134.997 27.093s92.8-9.045 134.997-27.093zM162.731 420.651c15.275-35.584 36.267-66.688 62.933-93.355s57.771-47.659 93.355-62.933c35.541-15.275 73.643-22.912 114.176-22.912s78.635 7.637 114.176 22.912c35.541 15.232 66.688 36.267 93.355 62.933s47.616 57.771 62.933 93.355c14.488 33.093 22.919 71.66 22.919 112.196 0 0.696-0.002 1.392-0.007 2.086l0.001-0.107c0 40.533-7.637 78.592-22.912 114.176-15.275 35.541-36.267 66.688-62.933 93.355s-57.771 47.616-93.355 62.933c-35.584 15.189-73.643 22.869-114.219 22.869s-78.592-7.68-114.133-22.912c-35.541-15.275-66.688-36.267-93.355-62.933s-47.616-57.771-62.933-93.312c-14.488-33.112-22.918-71.7-22.918-112.256 0-0.675 0.002-1.349 0.007-2.023l-0.001 0.104c0-40.576 7.637-78.635 22.912-114.176zM558.592 553.6c4.894-4.678 7.937-11.258 7.937-18.548 0-0.064 0-0.128-0.001-0.192v0.010c0-7.253-2.645-13.483-7.936-18.731-4.678-4.894-11.258-7.937-18.548-7.937-0.064 0-0.128 0-0.192 0.001h-79.99v-80c0-7.253-2.645-13.483-7.936-18.731-5.291-5.291-11.563-7.936-18.731-7.936s-13.44 2.645-18.731 7.936c-4.894 4.658-7.937 11.22-7.937 18.494 0 0.083 0 0.166 0.001 0.249v-0.013 79.957h-80.043c-0.060 0-0.13-0.001-0.2-0.001-7.285 0-13.859 3.043-18.521 7.927l-0.009 0.010c-4.894 4.658-7.937 11.22-7.937 18.494 0 0.083 0 0.166 0.001 0.249v-0.013c0 0.060-0.001 0.13-0.001 0.2 0 7.285 3.043 13.859 7.927 18.521l0.010 0.009c4.671 4.894 11.245 7.937 18.53 7.937 0.070 0 0.141 0 0.211-0.001h79.989v80c0 0.060-0.001 0.13-0.001 0.2 0 7.285 3.043 13.859 7.927 18.521l0.010 0.009c5.291 5.291 11.52 7.936 18.731 7.936s13.44-2.688 18.731-7.936c4.894-4.678 7.937-11.258 7.937-18.548 0-0.064 0-0.128-0.001-0.192v0.010-80h80c7.211 0 13.483-2.645 18.773-7.893z" />
<glyph unicode="&#xe97f;" glyph-name="apple" horiz-adv-x="2503" d="M456.249 828.018c-29.241-34.645-76.060-61.895-122.88-58.027-5.86 46.763 17.067 96.484 43.861 127.147 29.298 35.556 80.498 60.871 121.97 62.862 4.892-48.697-14.165-96.484-42.951-131.982zM498.688 760.775c-67.755 3.868-125.838-38.514-158.037-38.514-32.654 0-81.92 36.523-135.566 35.556-69.746-0.967-134.656-40.391-170.268-103.253-73.159-125.724-19.001-311.751 51.769-414.094 34.588-50.631 76.060-106.212 130.674-104.22 51.712 1.934 72.192 33.564 134.656 33.564 62.919 0 80.953-33.564 135.566-32.597 56.604 0.967 92.16 50.631 126.862 101.262 39.481 57.515 55.58 113.55 56.548 116.452-0.967 1.024-109.227 42.382-110.251 167.14-0.967 104.22 85.333 153.941 89.316 156.843-48.811 72.078-124.928 79.872-151.268 81.863zM890.368 902.030v-759.467h118.044v259.641h163.499c149.22 0 254.123 102.286 254.123 250.425 0 148.082-102.969 249.401-250.254 249.401h-285.355zM1008.412 802.645h136.135c102.4 0 160.939-54.556 160.939-150.528s-58.539-151.040-161.451-151.040h-135.623v301.568zM1641.586 136.704c74.126 0 142.905 37.547 174.080 96.939h2.446v-91.079h109.284v378.027c0 109.625-87.78 180.224-222.891 180.224-125.383 0-218.055-71.566-221.468-169.984h106.382c8.761 46.763 52.167 77.426 111.673 77.426 72.192 0 112.64-33.564 112.64-95.46v-41.927l-147.342-8.761c-136.988-8.249-211.172-64.284-211.172-161.735 0-98.418 76.629-163.669 186.368-163.669zM1673.273 226.816c-62.919 0-102.969 30.208-102.969 76.516 0 47.73 38.571 75.492 112.242 79.872l131.186 8.306v-42.894c0-71.111-60.473-121.742-140.459-121.742zM2073.202-64c115.143 0 169.301 43.804 216.633 176.811l207.303 580.722h-120.036l-138.98-448.683h-2.446l-139.036 448.683h-123.392l200.021-552.96-10.809-33.564c-17.977-57.003-47.218-78.905-99.442-78.905-9.273 0-27.307 0.967-34.645 1.934v-91.136c6.827-1.934 36.068-2.901 44.885-2.901z" />
</font>
</defs>
</svg>
